<svg width="134" height="40" viewBox="0 0 134 40" fill="none" xmlns="http://www.w3.org/2000/svg">
<g clip-path="url(#clip0_9483_68632)">
<path d="M6.66675 12.0277C6.66675 10.9078 7.57457 9.99999 8.69443 9.99999H124.639C125.759 9.99999 126.667 10.9078 126.667 12.0277V28.008C126.667 29.1278 125.759 30.0356 124.639 30.0356H8.69443C7.57457 30.0356 6.66675 29.1278 6.66675 28.008V12.0277Z" fill="#004C8F"/>
<path fill-rule="evenodd" clip-rule="evenodd" d="M69.4601 18.9044H72.3996C72.3493 18.388 72.2537 17.9522 72.1029 17.5919C71.8942 17.0755 71.595 16.622 71.2052 16.2265C70.8205 15.831 70.3276 15.5336 69.7266 15.3296C69.1231 15.1255 68.4845 15.0248 67.7955 15.0248C67.0034 15.0248 66.2892 15.1583 65.6404 15.4355C65.1275 15.6521 64.6673 15.9745 64.2449 16.4053C63.8249 16.8386 63.4955 17.3753 63.2566 18.0051C63.0178 18.6399 62.8996 19.3328 62.8996 20.0633C62.8996 20.9375 63.058 21.721 63.395 22.4339C63.6289 22.9403 63.9557 23.3887 64.3756 23.7893C64.788 24.1747 65.3061 24.4821 65.9196 24.6988C66.5256 24.9104 67.1969 25.0137 67.9161 25.0137C68.6453 25.0137 69.2816 24.9103 69.8323 24.6912C70.383 24.4745 70.8607 24.1621 71.2605 23.7565C71.6553 23.3559 71.947 22.9579 72.1104 22.5574C72.2814 22.1543 72.3996 21.6605 72.465 21.071H69.4727C69.4174 21.59 69.2514 21.9779 68.9647 22.2374C68.6856 22.5145 68.3034 22.6355 67.8256 22.6355C67.4258 22.6355 67.1014 22.5573 66.8349 22.3885C66.5759 22.2198 66.3672 21.9678 66.2188 21.6177C66.0755 21.2776 65.9975 20.7788 65.9975 20.1137C65.9975 19.1614 66.171 18.4686 66.518 18.0404C66.8625 17.6171 67.3101 17.403 67.8608 17.403C68.3033 17.403 68.663 17.5315 68.9496 17.7935C69.2338 18.0605 69.4048 18.4333 69.4601 18.9044ZM33.031 15.2774V24.7573H36.1441V21.0792H39.061V24.7573H42.179V15.2774H39.061V18.4768H36.1441V15.2774H33.031ZM47.9071 17.6329H47.0999V22.4018L47.8845 22.3968C48.4628 22.3968 48.9003 22.3161 49.1946 22.1473C49.4888 21.9811 49.7176 21.7115 49.876 21.3362C50.0394 20.9608 50.1149 20.4972 50.1149 19.943C50.1149 19.6029 50.0772 19.2805 50.0068 18.9757C49.9288 18.6683 49.8232 18.4239 49.6924 18.2299C49.5491 18.0334 49.3857 17.9024 49.1845 17.8142C48.9129 17.6933 48.488 17.6329 47.9071 17.6329ZM50.1426 24.5634C49.6447 24.6969 49.0361 24.7573 48.3019 24.7573H44.0548V15.2774H48.3824C49.358 15.2774 50.1979 15.4285 50.902 15.7359C51.6086 16.0432 52.1618 16.5647 52.5691 17.2852C52.9715 18.0208 53.1701 18.9026 53.1701 19.9455C53.1701 20.656 53.082 21.2833 52.8985 21.8401C52.72 22.3993 52.4911 22.8553 52.2296 23.2181C51.9656 23.5683 51.6789 23.8504 51.3621 24.0595C51.0503 24.2635 50.643 24.4349 50.1426 24.5634ZM54.5976 24.7573V15.2774H61.9804V17.6153H57.6703V19.1344H61.1178V21.4092H57.6703V24.7573H54.5976ZM82.3796 17.4112C82.8196 17.4112 83.1038 17.4313 83.2446 17.4716C83.4256 17.5245 83.5765 17.6278 83.6846 17.7639C83.7952 17.9049 83.8531 18.0687 83.8531 18.2577C83.8531 18.4995 83.7576 18.6985 83.574 18.8497C83.3779 19.0084 83.0434 19.0815 82.5632 19.0815H81.3914V17.4112H82.3796ZM83.1616 24.7573C83.8984 24.7573 84.4164 24.722 84.7207 24.6565C85.0199 24.586 85.3292 24.4752 85.6435 24.3291C85.9503 24.1679 86.1866 24.0167 86.3425 23.8504C86.5839 23.6262 86.7624 23.3541 86.8932 23.0266C87.024 22.6965 87.0893 22.3237 87.0893 21.9232C87.0893 21.3513 86.9486 20.8802 86.6619 20.4972C86.3752 20.1118 85.9905 19.8574 85.5052 19.7188C86.3274 19.1998 86.7373 18.5297 86.7373 17.7135C86.7373 16.8696 86.3752 16.2246 85.6586 15.7862C85.1054 15.4487 84.2429 15.2774 83.0736 15.2774H78.3789V24.7573H83.1616ZM82.6612 20.787C83.2773 20.787 83.6771 20.8626 83.8783 21.0213C84.0644 21.1749 84.1649 21.3865 84.1649 21.6712C84.1649 21.9584 84.0643 22.1851 83.8606 22.3439C83.667 22.5126 83.2622 22.5832 82.6612 22.5832H81.3914V20.787H82.6612ZM91.9404 21.5705H93.9193L92.9161 18.1216L91.9404 21.5705ZM91.3696 23.5128L91.01 24.7573H87.9724L91.3696 15.2774H94.5304L97.9251 24.7573H94.8297L94.4676 23.5128H91.3696ZM99.2428 24.7573V15.2774H102.142L105.414 20.3537V15.2774H108.396V24.7573H105.434L102.233 19.807V24.7573H99.2428ZM110.467 15.2774V24.7573H113.482V21.7997L114.309 20.981L116.585 24.7573H120.312L116.484 18.8471L119.952 15.2774H116.296L113.482 18.4038V15.2774H110.467Z" fill="white"/>
<path d="M6.66675 11.8056C6.66675 10.8084 7.47513 9.99999 8.47233 9.99999H26.6651V30.0356H8.47233C7.47513 30.0356 6.66675 29.2273 6.66675 28.2301V11.8056Z" fill="#ED232A"/>
<path fill-rule="evenodd" clip-rule="evenodd" d="M15.667 9.99999H17.666V13.5068H23.1668V19.0184H26.6651V21.0212H23.1668V26.5314H17.666V30.0356H15.667V26.5314H10.1665V21.0212H6.66675V19.0184H10.1665V13.5068H15.667V9.99999Z" fill="white"/>
<path d="M13.6604 17.0139H19.6601V23.0249H13.6604V17.0139Z" fill="#004C8F"/>
</g>
<defs>
<clipPath id="clip0_9483_68632">
<rect width="120" height="20.0357" fill="white" transform="translate(6.66675 10)"/>
</clipPath>
</defs>
</svg>
