<svg xmlns="http://www.w3.org/2000/svg" viewBox="0 0 120 120" fill="none" class="ico svg-icon ico-shop-bag"><path d="M35.25 46.517a1.03 1.03 0 011.022-1.165h57.517a1.03 1.03 0 011.022 1.165l-4.148 31.54a1.03 1.03 0 01-1.021.897H40.419a1.03 1.03 0 01-1.022-.896L35.25 46.517z" stroke="#000" stroke-width="1.237"/> <path d="M15 36.358h11.872a3.092 3.092 0 013.066 2.689l6.726 51.065a3.092 3.092 0 003.065 2.688h48.04" stroke="#000" stroke-width="1.237"/> <ellipse cx="77.235" cy="96.354" rx="2.826" ry="2.955" stroke="#000" stroke-width="1.237"/> <ellipse cx="52.055" cy="96.354" rx="2.826" ry="2.955" stroke="#000" stroke-width="1.237"/> <path d="M39.4 76.6h-4.803m-3.354-26.214h4.625" stroke="#000" stroke-width="1.237"/> <path d="M29.701 40.413h-13.47a1.03 1.03 0 01-1.03-1.031v-3.594M36.2 89h50.37c.569 0 1.03.462 1.03 1.031v3.37M35.868 50.334h58.496" stroke="#000" stroke-width=".618"/> <path opacity=".45" d="M55.35 53.317l-11.774 10.19L56.03 77.895l11.773-10.19L55.35 53.316zm19.691 3.034l9.132 5.51-9.361 16.073-9.14-5.276 9.369-16.307zm-7.827 7.195a4.625 4.625 0 100-9.25 4.625 4.625 0 000 9.25z" stroke="#F50514" stroke-width=".412" stroke-miterlimit="10" stroke-linecap="round" stroke-dasharray="0.82 0.82"/> <circle cx="65.11" cy="31" r="11" stroke="#F50514" stroke-width=".412" stroke-linecap="round" stroke-dasharray="1.24 1.24"/> <path d="M65.621 29.477c.535-.366 1.037-.76 1.037-1.554 0-.633-.308-1.613-1.619-1.613-1.31 0-1.555.996-1.634 1.534h-1.33c0-1.091.682-2.705 2.93-2.705 2.009 0 2.98 1.282 2.98 2.8 0 1.392-.808 2.01-1.36 2.39-.777.538-1.343.934-1.343 1.994v.98h-1.327V32.29c0-1.643.955-2.322 1.666-2.813zm-1.86 6.018c0-.252.101-.493.284-.671a.983.983 0 011.373 0c.183.178.285.42.285.671a.939.939 0 01-.285.672.983.983 0 01-.687.277.983.983 0 01-.686-.278.939.939 0 01-.285-.67z" fill="#F50514"/></svg>