<svg width="64" height="24" viewBox="0 0 64 24" fill="none" xmlns="http://www.w3.org/2000/svg">
<g clip-path="url(#clip0_13723_10333)">
<path d="M23.9761 19.0365C23.9761 19.0365 23.7161 19.1265 23.1162 19.1265C20.8666 19.1265 21.6265 16.7569 20.2667 16.7569H19.9467V19.0665H18.207V12.3477H20.7166C22.5263 12.3477 23.4362 12.9576 23.4362 14.5473C23.4362 15.5471 22.7663 16.047 22.3863 16.247C22.9262 16.8869 22.8863 17.6868 23.6761 17.6868H23.9761V19.0365ZM20.5366 15.4471C21.2365 15.4471 21.7364 15.1572 21.7364 14.6073C21.7364 14.0474 21.3265 13.7374 20.6566 13.7374H19.9567V15.4571H20.5366V15.4471Z" fill="#1C3184"/>
<path d="M29.5657 15.8693C29.8957 16.1292 30.1656 16.5391 30.1656 17.139C30.1656 18.5588 29.1158 19.0587 27.876 19.0587H24.6865V12.3398H27.5261C28.8958 12.3398 29.7057 12.8498 29.7057 14.1595C29.7057 15.3093 28.9858 15.4893 28.6259 15.4893V15.5093C28.8558 15.4993 29.2358 15.6093 29.5657 15.8693ZM27.1161 15.0094C27.696 15.0094 27.916 14.7794 27.916 14.3595C27.916 13.9496 27.616 13.7296 26.9961 13.7296H26.4362V15.0194H27.1161V15.0094ZM27.3261 17.679C27.896 17.679 28.1559 17.479 28.1559 16.9491C28.1559 16.4192 27.796 16.2092 27.2861 16.2092H26.4462V17.679H27.3261Z" fill="#1C3184"/>
<path d="M30.9951 19.0665V12.3477H32.7348V17.6768H35.4344V19.0665H30.9951Z" fill="#1C3184"/>
<path d="M37.1143 19.0665V12.3477H39.5739C40.9436 12.3477 41.7435 12.8776 41.7435 14.1174C41.7435 15.3272 41.0336 15.5271 40.7037 15.5271V15.5471C41.1436 15.5471 42.1934 15.9171 42.1934 17.2068C42.1934 18.5966 41.0836 19.0665 39.8338 19.0665H37.1143ZM39.4939 15.1772C40.2537 15.1772 40.5037 14.8072 40.5037 14.2473C40.5037 13.6674 40.1338 13.3275 39.3039 13.3275H38.3241V15.1772H39.4939ZM39.6138 18.0867C40.3037 18.0867 40.8936 17.8667 40.8936 17.0669C40.8936 16.317 40.3337 16.037 39.6038 16.037H38.3241V18.0867H39.6138Z" fill="#DF2111"/>
<path d="M46.8728 17.3368H44.4132L43.8233 19.0665H42.5635L45.0431 12.3477H46.2629L48.7425 19.0665H47.4827L46.8728 17.3368ZM44.7431 16.407H46.5628L45.653 13.8374L44.7431 16.407Z" fill="#DF2111"/>
<path d="M53.4304 19.0665L50.7909 14.5373V19.0665H49.5811V12.3477H50.8508L53.5004 17.0069V12.3477H54.7002V19.0665H53.4304Z" fill="#DF2111"/>
<path d="M61.7105 18.1567C60.8406 18.1567 60.8206 16.6969 60.1108 15.9871C60.0408 15.9171 59.7108 15.5271 59.1509 15.3672L61.7205 12.3477H60.1807L57.6112 15.3372V15.3272V12.3477H56.4014V15.7371V17.4768V19.0565H57.6112V17.4768V17.1769L58.361 16.297H58.441C59.8608 16.297 59.4009 19.1065 61.3605 19.1065C61.7505 19.1065 62.0004 19.0465 62.0004 19.0465V18.1467H61.7105V18.1567Z" fill="#DF2111"/>
<path d="M5.20947 6.14948V3H2V9.30895C2.69988 7.93918 3.8297 6.82936 5.20947 6.14948Z" fill="#1C3184"/>
<path d="M5.20947 7.05959C3.28979 8.1694 2 10.2291 2 12.5987V18.5077V19.7975H5.20947V18.9576V18.1477V12.5987C5.20947 10.9689 6.42927 9.61916 8.019 9.42919V6.21973C6.99917 6.26972 6.03933 6.56967 5.20947 7.05959Z" fill="#DF2111"/>
<path d="M8.81907 6.20898V9.41845C10.3988 9.61842 11.6286 10.9582 11.6286 12.5879C11.6286 14.3576 10.1888 15.7874 8.41913 15.7874C7.45929 15.7874 6.60943 15.3575 6.01953 14.6876V18.5269C6.75941 18.8269 7.56927 18.9969 8.41913 18.9969C11.9685 18.9969 14.8381 16.1273 14.8381 12.5979C14.8381 9.19849 12.1785 6.41895 8.81907 6.20898Z" fill="#1C3184"/>
</g>
<defs>
<clipPath id="clip0_13723_10333">
<rect width="60" height="16.7977" fill="white" transform="translate(2 3)"/>
</clipPath>
</defs>
</svg>
