<svg xmlns="http://www.w3.org/2000/svg" xmlns:xlink="http://www.w3.org/1999/xlink" style="position: absolute; width: 0; height: 0" aria-hidden="true" id="__SVG_SPRITE_NODE__"><symbol xmlns="http://www.w3.org/2000/svg" fill="none" viewBox="0 0 16 16" id="icon-arrow-down-line"><path fill-rule="evenodd" clip-rule="evenodd" d="M7.335 10.707L2.668 6.041l.707-.708 4.313 4.314 4.313-4.314.707.708-4.666 4.666a.5.5 0 01-.707 0z" fill="#000"/></symbol><symbol xmlns="http://www.w3.org/2000/svg" viewBox="0 0 20 20" id="icon-arrow-down"><path class="st0" d="M14.3 7l1.4 1.4-4.2 4.2-1.4 1.4-1.4-1.4-4.3-4.2L5.8 7l4.2 4.2L14.3 7z"/></symbol><symbol xmlns="http://www.w3.org/2000/svg" fill="none" viewBox="0 0 24 24" id="icon-arrow-left-simple"><path d="M6.81 12.75l4.72 4.72-1.06 1.06L3.94 12l6.53-6.53 1.06 1.06-4.72 4.72H20v1.5H6.81z" fill="#fff"/></symbol><symbol xmlns="http://www.w3.org/2000/svg" fill="none" viewBox="0 0 24 24" id="icon-arrow-left-simple_dark"><path d="M6.81 12.75l4.72 4.72-1.06 1.06L3.94 12l6.53-6.53 1.06 1.06-4.72 4.72H20v1.5H6.81z" fill="#000"/></symbol><symbol xmlns="http://www.w3.org/2000/svg" viewBox="0 0 20 20" id="icon-arrow-right-footer"><path clip-rule="evenodd" d="M13 10.41l-5.25 5.506-.861-.905L11.667 10 6.889 4.988l.861-.905L13 9.589c.22.226.22.594 0 .821z"/></symbol><symbol xmlns="http://www.w3.org/2000/svg" viewBox="0 0 20 20" id="icon-arrow-right-simple"><g clip-path="url(#icon-arrow-right-simple_clip0_430_12888)"><path d="M15.19 10.75H2v-1.5h13.19l-4.72-4.72 1.06-1.06L18.06 10l-6.53 6.53-1.06-1.06 4.72-4.72z"/></g><defs><clipPath id="icon-arrow-right-simple_clip0_430_12888"><path d="M0 0h20v20H0z"/></clipPath></defs></symbol><symbol xmlns="http://www.w3.org/2000/svg" viewBox="0 0 17 32" id="icon-arrow-right"><path d="M17.403 15.999L1.588 32 0 30.43l14.266-14.431L0 1.568 1.586-.001z"/></symbol><symbol xmlns="http://www.w3.org/2000/svg" viewBox="0 0 20 20" id="icon-arrow-up"><path class="st0" d="M14.3 13l1.4-1.4-4.2-4.2L10.1 6 8.6 7.3l-4.2 4.2L5.8 13 10 8.8l4.3 4.2z"/></symbol><symbol xmlns="http://www.w3.org/2000/svg" fill="none" viewBox="0 0 58 58" id="icon-arrow"><path fill-rule="evenodd" clip-rule="evenodd" d="M28.787 9l19.8 19.799-2.122 2.121h-.001L28.785 48.597l-2.12-2.121 16.177-16.178H10v-3h32.843L26.666 11.121 28.787 9z" fill="#F50514"/></symbol><symbol xmlns="http://www.w3.org/2000/svg" fill="none" viewBox="0 0 16 16" id="icon-arrowRight"><path fill-rule="evenodd" clip-rule="evenodd" d="M10.52 8.04l-4.666 4.667L5.147 12 9.46 7.687 5.147 3.374l.707-.707 4.667 4.666a.5.5 0 010 .707z" fill="#F50514"/></symbol><symbol xmlns="http://www.w3.org/2000/svg" viewBox="0 0 20 20" id="icon-close"><path class="st0" d="M15.3 5l-.8-.8-4.7 4.7L5 4.2l-.8.8 4.7 4.8-4.7 4.7.8.8 4.8-4.7 4.7 4.7.8-.8-4.7-4.7z"/></symbol><symbol xmlns="http://www.w3.org/2000/svg" fill="none" viewBox="0 0 25 24" id="icon-google-play"><g clip-path="url(#icon-google-play_clip0_2425_1391)" fill="#fff"><path d="M5.907 20.335c-.271-.135-.407-.474-.407-.812v-.271V4.287c0-.271.068-.474.136-.745.067-.136.203-.271.339-.407 2.915 2.912 5.762 5.824 8.61 8.736-2.916 2.708-5.763 5.553-8.678 8.464zM17.432 8.891c-.814.813-1.695 1.626-2.508 2.506-2.712-2.777-5.492-5.553-8.204-8.33 0 0 0-.067.068-.067 3.525 1.964 7.05 3.928 10.644 5.891zM6.72 20.335c2.712-2.708 5.492-5.417 8.204-8.126.745.745 1.559 1.49 2.44 2.303-3.525 1.964-7.05 3.927-10.576 5.823H6.72zM17.839 14.24c-.881-.812-1.695-1.624-2.576-2.437l2.644-2.64c.271.135.542.27.813.473.678.407 1.424.745 2.102 1.151.204.068.339.204.475.407.27.338.27.677 0 1.015-.136.136-.271.271-.475.339-.95.61-1.966 1.151-2.983 1.693z"/></g><defs><clipPath id="icon-google-play_clip0_2425_1391"><path fill="#fff" transform="translate(.5)" d="M0 0h24v24H0z"/></clipPath></defs></symbol><symbol xmlns="http://www.w3.org/2000/svg" fill="none" viewBox="0 0 80 80" id="icon-toast-success"><path d="M60.153 60.153C54.993 65.312 47.87 68.5 40 68.5c-7.87 0-14.993-3.188-20.152-8.347C14.688 54.993 11.5 47.87 11.5 40c0-7.87 3.188-14.993 8.347-20.152C25.007 14.688 32.13 11.5 40 11.5c7.87 0 14.993 3.188 20.153 8.347C65.312 25.007 68.5 32.13 68.5 40c0 7.87-3.188 14.993-8.347 20.153z" stroke="#fff" stroke-opacity=".95" stroke-width="3" stroke-linejoin="round"/><path d="M29.854 39.146l7.333 7.333L50.145 33.52" stroke="#fff" stroke-opacity=".95" stroke-width="3" stroke-linecap="round" stroke-linejoin="round"/></symbol><symbol xmlns="http://www.w3.org/2000/svg" fill="none" viewBox="0 0 80 80" id="icon-toast-warning"><circle cx="40" cy="40" r="28.5" stroke="#fff" stroke-opacity=".95" stroke-width="3"/><path d="M40.25 50c.68 0 1.22.21 1.622.628.419.401.628.942.628 1.622 0 .68-.21 1.22-.628 1.622-.401.419-.942.628-1.622.628-.68 0-1.23-.21-1.648-.628C38.2 53.471 38 52.93 38 52.25c0-.68.2-1.22.602-1.622.418-.419.968-.628 1.648-.628zM38 27a2 2 0 114 0v17a2 2 0 11-4 0V27z" fill="#fff" fill-opacity=".95"/></symbol></svg>