<svg width="25" height="24" viewBox="0 0 25 24" fill="none" xmlns="http://www.w3.org/2000/svg">
<g clip-path="url(#clip0_3769_627)">
<path d="M5.90676 20.3354C5.63558 20.2 5.5 19.8614 5.5 19.5228C5.5 19.4551 5.5 19.3197 5.5 19.252C5.5 14.241 5.5 9.22991 5.5 4.28661C5.5 4.01574 5.56779 3.81261 5.63558 3.54174C5.7034 3.40629 5.83898 3.27087 5.97459 3.13545C8.88981 6.04725 11.7372 8.95904 14.5847 11.8709C11.6694 14.5795 8.82202 17.4236 5.90676 20.3354Z" fill="white"/>
<path d="M17.432 8.89133C16.6184 9.70394 15.7371 10.5165 14.9235 11.3968C12.2117 8.62046 9.43203 5.84408 6.72017 3.06771C6.72017 3.06771 6.72017 3 6.78796 3C10.3134 4.96376 13.8388 6.92757 17.432 8.89133Z" fill="white"/>
<path d="M6.72017 20.3354C9.43203 17.6267 12.2117 14.9181 14.9235 12.2094C15.6693 12.9543 16.4828 13.6992 17.3642 14.5118C13.8388 16.4756 10.3134 18.4394 6.78796 20.3354H6.72017Z" fill="white"/>
<path d="M17.839 14.2409C16.9577 13.4283 16.1441 12.6157 15.2628 11.8032C16.1441 10.9228 17.0255 10.0425 17.9068 9.1622C18.178 9.29762 18.4492 9.43307 18.7204 9.6362C19.3983 10.0425 20.1441 10.3811 20.8221 10.7874C21.0255 10.8551 21.161 10.9905 21.2966 11.1937C21.5678 11.5323 21.5678 11.8709 21.2966 12.2094C21.161 12.3449 21.0255 12.4803 20.8221 12.548C19.8729 13.1575 18.856 13.6992 17.839 14.2409Z" fill="white"/>
</g>
<defs>
<clipPath id="clip0_3769_627">
<rect width="24" height="24" fill="white" transform="translate(0.5)"/>
</clipPath>
</defs>
</svg>
