<svg width="80" height="24" viewBox="0 0 80 24" fill="none" xmlns="http://www.w3.org/2000/svg">
<g clip-path="url(#clip0_16929_6971)">
<path d="M56.1271 11.0103C56.1027 10.1309 55.8338 9.49002 55.3257 9.10342C54.8261 8.7365 54.0487 8.55762 52.9496 8.55762C51.3271 8.56916 49.8005 9.1248 49.8005 9.1248L49.5881 10.8508L49.9435 10.6967C50.4227 10.4886 50.9098 10.3233 51.3905 10.2062C51.8443 10.0969 52.2881 10.0416 52.7094 10.0416C53.2937 10.0416 53.6998 10.1176 53.9535 10.2748C54.1818 10.4139 54.297 10.6295 54.3055 10.9343C54.3129 11.1814 54.2225 11.3847 54.0281 11.5575C53.8817 11.6888 53.5305 11.9105 52.6898 12.2194L50.7794 12.9159C50.0498 13.1854 49.5187 13.5238 49.2013 13.9212C48.8724 14.3319 48.7146 14.8591 48.7329 15.4874C48.7532 16.2225 49.0492 16.8169 49.6115 17.2541C49.8286 17.4238 50.0918 17.566 50.3479 17.6651C50.714 17.8073 51.1574 17.8806 51.5473 17.9129C52.5302 17.9937 53.4441 17.7035 54.1693 17.1298L54.1083 17.7279H56.0902V16.0148L56.1278 11.7027C56.1305 11.6454 56.1271 11.011 56.1271 11.011V11.0103ZM52.5543 16.3437C52.3738 16.3641 52.1915 16.3743 52.01 16.3743C51.5585 16.3743 51.2133 16.2874 50.9843 16.1163C50.7676 15.9534 50.6575 15.7229 50.6487 15.4123C50.6405 15.1272 50.7154 14.8889 50.8732 14.7023C51.0311 14.5101 51.3474 14.3221 51.8118 14.1439L53.6409 13.4528C53.9095 13.3432 54.0988 13.2526 54.2526 13.1599C54.2713 13.1497 54.2892 13.1389 54.3078 13.128L54.2374 15.7738C54.2364 15.8122 53.9126 15.9585 53.8675 15.9819C53.7503 16.0423 53.0641 16.2857 52.5543 16.3437Z" fill="#00ADE9"/>
<path d="M47.6113 15.6594L47.6059 15.6132L47.3569 15.7334C46.9278 15.9411 46.4912 16.1057 46.0589 16.2225C45.3859 16.4014 44.6567 16.4709 43.9809 16.2693C43.754 16.2011 43.5413 16.0983 43.3489 15.9628C43.166 15.8342 43.0078 15.6828 42.8787 15.5121C42.3388 14.7966 42.2287 13.7918 42.2765 12.9131C42.3141 12.2285 42.4607 11.5034 42.8787 10.9532C43.0074 10.7832 43.166 10.6314 43.3489 10.5028C43.5413 10.3677 43.754 10.2645 43.9809 10.197C44.9286 9.91424 45.9167 10.1444 46.8211 10.4573C47.1235 10.5619 47.465 10.6956 47.8447 10.865L48.1593 9.09588C47.3379 8.83045 46.484 8.67296 45.6288 8.59082C44.8775 8.51852 44.1147 8.55619 43.3885 8.78463C42.6982 9.00118 42.123 9.3698 41.6766 9.87996C40.8257 10.8541 40.5731 12.2936 40.6442 13.5655C40.7008 14.5803 40.9948 15.7334 41.6268 16.5286C42.2562 17.3212 43.1917 17.734 44.1614 17.8426C45.1447 17.9529 46.1003 17.8432 47.0568 17.5965C47.4253 17.5014 47.7901 17.382 48.1465 17.2462L48.1841 17.2319L48.1634 17.1963C47.8575 16.6906 47.6713 16.1736 47.611 15.6601L47.6113 15.6594Z" fill="#00ADE9"/>
<path d="M63.673 8.90553C63.2449 8.78945 62.8008 8.70357 62.3517 8.65096C61.8612 8.58511 61.343 8.55897 60.7671 8.57052C59.6314 8.5936 58.827 8.78639 58.309 9.1601C57.7851 9.55146 57.5019 10.1913 57.4687 11.0616L57.4626 11.7492L57.4646 16.0447L57.4619 17.7245H59.4617L59.4353 17.4109C59.4031 17.1451 59.3625 16.396 59.3625 16.396C59.3567 16.2629 59.3526 16.1224 59.3493 15.9751L59.23 12.2648C59.2185 11.8847 59.2226 11.475 59.2575 11.1278C59.291 10.9424 59.3875 10.6573 59.6555 10.4177C60.6733 9.56096 62.4607 10.3851 62.4607 10.3851C62.477 10.3053 62.5186 10.2133 62.5674 10.1241C62.7158 9.87731 62.8865 9.64412 63.0802 9.43402C63.2564 9.24326 63.4555 9.06608 63.6733 8.90553H63.673Z" fill="#00ADE9"/>
<path d="M69.2302 6.14062C69.2414 6.30185 69.281 7.23935 69.2871 8.75421C68.8905 8.68293 68.567 8.6276 68.167 8.59027C67.3913 8.51797 66.6038 8.55565 65.8539 8.78408C65.1415 9.00063 64.5467 9.36925 64.0864 9.87941C63.2078 10.8536 62.9473 12.2931 63.0205 13.5649C63.0787 14.5798 63.3826 15.7328 64.0349 16.5281C64.6849 17.3207 65.651 17.7334 66.6525 17.842C66.6996 17.8468 66.9882 17.8682 67.0861 17.8749C67.3344 17.8916 67.5834 17.8994 67.832 17.8912C68.1656 17.8811 68.4986 17.8502 68.8285 17.8003C68.9497 17.7819 69.0747 17.7575 69.1997 17.7266C69.3156 17.6981 69.4297 17.6601 69.5432 17.619C69.5825 17.6048 69.8074 17.5124 69.866 17.4836C70.1559 17.3441 70.4313 17.1567 70.6206 16.9089C70.6694 16.8448 70.7121 16.7769 70.7487 16.7043C70.8256 16.5498 70.8699 16.3764 70.8706 16.1809V6.14062H69.2302ZM66.4656 16.2695C66.2308 16.2012 66.0114 16.0984 65.8122 15.963C65.6232 15.8343 65.4599 15.6829 65.3271 15.5122C64.7693 14.7967 64.6558 13.792 64.7053 12.9132C64.7435 12.2286 64.8953 11.5036 65.3268 10.9534C65.4603 10.7833 65.6235 10.6316 65.8122 10.5029C66.0114 10.3678 66.2308 10.2647 66.4656 10.1971C67.4086 9.92455 68.3255 10.1954 69.2322 10.4911C69.2322 10.4911 69.2393 15.576 69.2393 15.6045C69.2387 15.9076 68.8861 16.0868 68.6645 16.1863C68.3472 16.3292 67.7327 16.3754 67.7327 16.3754C67.3063 16.4117 66.8764 16.3886 66.4659 16.2698L66.4656 16.2695Z" fill="#00ADE9"/>
<path d="M25.9181 13.0386C25.3951 12.6041 24.7187 12.3237 24.1215 12.0763C23.2984 11.7355 22.5878 11.4409 22.5878 10.8954C22.5878 10.6565 22.6992 10.4379 22.9014 10.2801C23.1148 10.1134 23.4126 10.0217 23.7398 10.0217C24.7691 10.0217 25.5898 10.7512 25.5976 10.758L25.7978 10.9409L26.71 9.22715L26.6057 9.1165C26.5657 9.07441 25.6051 8.08057 23.7523 8.08057C22.8635 8.08057 22.0458 8.36535 21.4493 8.88195C20.8437 9.40671 20.5104 10.1307 20.5104 10.9209C20.5104 11.7111 20.8082 12.3139 21.4212 12.8247C21.9364 13.2538 22.578 13.5311 23.1981 13.7992C24.0456 14.1651 24.7773 14.4811 24.7773 15.0439C24.7773 15.4726 24.488 15.9305 23.6761 15.9305C22.5122 15.9305 21.5774 15.0419 21.5682 15.033L21.3935 14.8626L20.2598 16.4369L20.3732 16.5635C20.3854 16.5771 20.6784 16.9012 21.2295 17.224C21.7342 17.5197 22.5641 17.8717 23.6507 17.8717C24.6008 17.8717 25.4103 17.5794 25.9926 17.0272C26.5403 16.5075 26.8417 15.7896 26.8417 15.0055C26.8417 14.2215 26.5396 13.5555 25.9181 13.0389" fill="#2E3180"/>
<path d="M37.6277 8.22168H35.5029V17.73H37.6277V8.22168Z" fill="#2E3180"/>
<path d="M34.171 13.4568C33.961 13.1256 33.6728 12.8625 33.3296 12.6867C33.8831 12.2417 34.1961 11.5591 34.1961 10.7798C34.1961 10.0005 33.8963 9.33451 33.3296 8.87798C32.7955 8.44827 32.054 8.22119 31.1842 8.22119H27.7266V17.7289H31.2221C32.1499 17.7289 32.9516 17.494 33.542 17.0493C34.2113 16.5449 34.5653 15.7935 34.5653 14.877C34.5653 14.3546 34.4291 13.8635 34.1707 13.4568M31.3495 15.9493H29.7321V10.0022H31.1585C31.7976 10.0022 32.1645 10.3603 32.1645 10.9845C32.1645 11.6087 31.8349 11.9349 31.1842 11.9349H30.6924V13.6846H31.3495C31.7089 13.6846 32.0083 13.7976 32.2153 14.0108C32.4324 14.2345 32.5211 14.4561 32.5211 14.7755C32.5211 15.4995 32.0723 15.9493 31.3498 15.9493" fill="#2E3180"/>
<path d="M13.9053 8.05078C11.1963 8.05078 9 10.2567 9 12.9779C9 15.5287 10.9304 17.6267 13.4037 17.8792V14.3003C12.8719 14.097 12.4932 13.5811 12.4932 12.9776C12.4932 12.1969 13.1266 11.5625 13.9053 11.5625C14.684 11.5625 15.3174 12.1969 15.3174 12.9776C15.3174 13.5807 14.9388 14.0966 14.407 14.3V17.8792C16.8803 17.6267 18.8106 15.5287 18.8106 12.9779C18.8106 10.2571 16.6144 8.05112 13.9053 8.05112" fill="#00ADE9"/>
</g>
<defs>
<clipPath id="clip0_16929_6971">
<rect width="62" height="11.7849" fill="white" transform="translate(9 6.14062)"/>
</clipPath>
</defs>
</svg>
