<svg width="24" height="24" viewBox="0 0 24 24" fill="none" xmlns="http://www.w3.org/2000/svg">
<g id="badge &#229;&#190;&#189;&#231;&#171;&#160;">
<g id="Group 2085660306">
<circle id="Ellipse 25453" cx="11.7939" cy="9.49507" r="3.47503" stroke="#171717" stroke-width="1.4893"/>
<path id="Union" fill-rule="evenodd" clip-rule="evenodd" d="M15.3053 14.6123C16.9326 13.4937 17.9997 11.619 17.9997 9.495C17.9997 6.06785 15.2214 3.28959 11.7942 3.28959C8.36709 3.28959 5.58883 6.06785 5.58883 9.495C5.58883 12.9222 8.36709 15.7004 11.7942 15.7004C12.2062 15.7004 12.6088 15.6603 12.9983 15.5837L15.3053 14.6123ZM17.7001 14.4278C18.8168 13.0922 19.489 11.3721 19.489 9.495C19.489 5.24533 16.0439 1.80029 11.7942 1.80029C7.54457 1.80029 4.09953 5.24533 4.09953 9.495C4.09953 11.4176 4.80468 13.1756 5.97045 14.5243L5.93486 14.5866L3.94913 18.0616L3.3125 19.1757H4.59566H6.93834L8.45352 21.3403L9.15188 22.3379L9.72167 21.2617L11.8032 17.3299L14.1339 21.0589L14.7451 22.0369L15.3849 21.0773L16.6532 19.1749H19.2332H20.5484L19.8718 18.0472L17.7001 14.4278ZM13.4416 17.013C14.3745 16.8095 15.2441 16.4368 16.0167 15.9287L16.693 15.6439L17.918 17.6856H16.2546H15.8561L15.635 18.0172L14.7855 19.2915L13.3781 17.0397L13.4416 17.013ZM6.88269 15.9297L5.87883 17.6864H7.32605H7.71375L7.93609 18.0041L8.97524 19.4886L10.1869 17.1998C9.38323 16.9713 8.24451 16.5695 6.88269 15.9297Z" fill="#171717"/>
</g>
</g>
</svg>
