<svg width="40" height="24" viewBox="0 0 40 24" fill="none" xmlns="http://www.w3.org/2000/svg">
<path d="M37 1.5H3V22.3856H37V1.5Z" fill="black"/>
<path d="M23.4884 5.4591C24.093 6.15386 24.3951 7.08319 24.3951 8.24709V13.7895H21.9205V8.63694C21.9205 7.26962 21.3895 6.58619 20.3271 6.58619C19.9429 6.57722 19.5639 6.67681 19.234 6.8741C18.9178 7.07233 18.6695 7.36212 18.5218 7.70478C18.35 8.10596 18.2659 8.53972 18.2759 8.97583V13.7895H15.8013V4.63691H17.4961L17.988 5.7725C18.1569 5.55822 18.3537 5.36754 18.5727 5.20471C18.7969 5.03857 19.0381 4.8965 19.2925 4.78087C19.5559 4.66099 19.8315 4.56989 20.1147 4.50995C20.413 4.44671 20.7169 4.41556 21.0214 4.41697C21.9587 4.37308 22.8654 4.75633 23.487 5.4591H23.4879H23.4884Z" fill="white"/>
<path d="M34.8699 9.90786H27.9545C28.0191 10.4587 28.2811 10.9675 28.6917 11.3403C29.1136 11.6849 29.647 11.8623 30.1912 11.8401C30.5876 11.8453 30.9784 11.749 31.3268 11.5603C31.6581 11.3814 31.9337 11.1147 32.1235 10.7895H34.7335C34.1006 12.7558 32.2566 14.0769 30.1912 14.0443C28.9164 14.0778 27.6859 13.5732 26.8014 12.6543C25.9018 11.7387 25.4124 10.4969 25.4454 9.21357C25.4431 8.68543 25.52 8.15965 25.6739 7.65416C25.8178 7.17368 26.0415 6.72105 26.3351 6.31468C26.6183 5.92435 26.9581 5.57886 27.3432 5.28906C27.7383 4.99549 28.1796 4.76894 28.6483 4.6198C29.1462 4.45979 29.6668 4.37956 30.1902 4.38239C31.0554 4.36918 31.9082 4.59195 32.6563 5.02617C33.369 5.43868 33.9505 6.04376 34.3342 6.77202C34.7255 7.5135 34.9265 8.34089 34.919 9.17912C34.919 9.42266 34.902 9.6662 34.869 9.90739V9.90833L34.8699 9.90786ZM28.7941 6.94194C28.4028 7.26807 28.1315 7.71551 28.0234 8.21298H32.4482C32.3505 7.86843 32.1834 7.54796 31.9564 7.2709C31.7468 7.02028 31.4835 6.82064 31.1856 6.68612C30.8737 6.54783 30.5352 6.47845 30.194 6.4827C29.6876 6.46665 29.192 6.62901 28.7936 6.94194H28.7941Z" fill="white"/>
<path d="M9.91647 4.37352C7.14217 4.37352 4.91301 6.71029 5.09048 9.52282C5.24198 11.928 7.19787 13.8839 9.60307 14.0354C12.4161 14.2129 14.7524 11.9842 14.7528 9.20942C14.7528 6.53849 12.5883 4.37352 9.91741 4.37305H9.91647V4.37352ZM10.9713 12.1555C10.9355 12.1895 10.8916 12.2051 10.842 12.2032H9.60355C9.48697 12.2032 9.39257 12.1088 9.39257 11.9922V8.50192C9.05275 8.6657 8.6728 8.73225 8.29805 8.76387C8.19091 8.78275 8.0866 8.69119 8.09463 8.58216C8.09557 8.17815 8.09557 7.77413 8.09463 7.37059C8.08802 7.27431 8.1607 7.19124 8.25699 7.18463C8.67469 7.11572 9.24201 6.94675 9.38313 6.49554C9.4157 6.39123 9.49121 6.30722 9.60024 6.31713H10.8203C10.9331 6.30156 11.0374 6.39831 11.0214 6.513V11.5344C11.0214 11.6972 11.0214 11.8577 11.0237 12.0201C11.0261 12.0696 11.0077 12.1178 10.9728 12.1532L10.9709 12.155L10.9713 12.1555Z" fill="white"/>
<path d="M33.8258 17.5044C33.696 17.5044 33.5892 17.4765 33.5052 17.4205C33.4219 17.3645 33.3707 17.2866 33.3516 17.1869L33.5052 17.1613C33.5216 17.2242 33.5588 17.2743 33.6168 17.3119C33.6755 17.3488 33.7479 17.3672 33.834 17.3672C33.9179 17.3672 33.9842 17.3498 34.0327 17.315C34.0811 17.2795 34.1054 17.2313 34.1054 17.1706C34.1054 17.1364 34.0975 17.1088 34.0818 17.0876C34.0668 17.0658 34.0357 17.0456 33.9886 17.0272C33.9415 17.0087 33.8712 16.9869 33.7776 16.9616C33.6773 16.9343 33.5987 16.907 33.5421 16.8797C33.4854 16.8524 33.4451 16.821 33.4212 16.7855C33.3973 16.7493 33.3854 16.7052 33.3854 16.6533C33.3854 16.5905 33.4031 16.5356 33.4386 16.4884C33.4741 16.4407 33.5233 16.4038 33.5861 16.3778C33.6489 16.3512 33.722 16.3379 33.8053 16.3379C33.8886 16.3379 33.963 16.3515 34.0286 16.3789C34.0948 16.4055 34.148 16.443 34.1883 16.4915C34.2286 16.54 34.2525 16.5963 34.26 16.6605L34.1064 16.6882C34.0962 16.6233 34.0637 16.5721 34.0091 16.5345C33.9552 16.4963 33.8865 16.4765 33.8032 16.4751C33.7247 16.4731 33.6609 16.4881 33.6117 16.5202C33.5625 16.5516 33.538 16.5936 33.538 16.6462C33.538 16.6755 33.5468 16.7008 33.5646 16.722C33.5823 16.7424 33.6144 16.7619 33.6609 16.7803C33.708 16.7988 33.7749 16.8189 33.8616 16.8408C33.9633 16.8667 34.0432 16.894 34.1013 16.9227C34.1593 16.9514 34.2006 16.9852 34.2252 17.0241C34.2498 17.063 34.2621 17.1112 34.2621 17.1685C34.2621 17.273 34.2232 17.3553 34.1453 17.4153C34.0682 17.4747 33.9616 17.5044 33.8258 17.5044Z" fill="white"/>
<path d="M32.416 17.4748L32.417 16H32.5686V16.9013L33.0623 16.3687H33.263L32.7448 16.9218L33.3306 17.4748H33.1114L32.5686 16.9423V17.4748H32.416Z" fill="white"/>
<path d="M31.9996 17.4746V16.9103C31.9996 16.8488 31.9938 16.7925 31.9822 16.7413C31.9706 16.6894 31.9518 16.6443 31.9259 16.6061C31.9006 16.5672 31.8675 16.5371 31.8265 16.516C31.7862 16.4948 31.7371 16.4842 31.679 16.4842C31.6258 16.4842 31.5787 16.4934 31.5377 16.5119C31.4974 16.5303 31.4633 16.5569 31.4353 16.5917C31.408 16.6259 31.3871 16.6675 31.3728 16.7167C31.3585 16.7659 31.3513 16.8219 31.3513 16.8847L31.2448 16.8611C31.2448 16.7478 31.2646 16.6525 31.3042 16.5754C31.3438 16.4982 31.3984 16.4398 31.468 16.4002C31.5377 16.3606 31.6176 16.3408 31.7077 16.3408C31.7739 16.3408 31.8316 16.3511 31.8808 16.3715C31.9306 16.392 31.9726 16.4197 32.0068 16.4545C32.0416 16.4893 32.0696 16.5293 32.0908 16.5743C32.1119 16.6187 32.1273 16.6662 32.1368 16.7167C32.1464 16.7665 32.1512 16.8164 32.1512 16.8662V17.4746H31.9996ZM31.1997 17.4746V16.3685H31.3359V16.6409H31.3513V17.4746H31.1997Z" fill="white"/>
<path d="M30.3789 17.5055C30.2956 17.5055 30.2256 17.4905 30.1689 17.4604C30.113 17.4304 30.071 17.3904 30.043 17.3406C30.015 17.2907 30.001 17.2365 30.001 17.1777C30.001 17.1176 30.0129 17.0664 30.0368 17.0241C30.0614 16.9811 30.0945 16.9459 30.1362 16.9186C30.1785 16.8913 30.2273 16.8705 30.2826 16.8561C30.3386 16.8425 30.4004 16.8305 30.468 16.8203C30.5363 16.8094 30.6029 16.8001 30.6677 16.7926C30.7333 16.7844 30.7906 16.7766 30.8398 16.7691L30.7865 16.8019C30.7886 16.6926 30.7674 16.6117 30.723 16.5591C30.6787 16.5065 30.6015 16.4803 30.4916 16.4803C30.4158 16.4803 30.3516 16.4973 30.299 16.5315C30.2471 16.5656 30.2106 16.6195 30.1894 16.6933L30.043 16.6503C30.0682 16.5513 30.1191 16.4745 30.1956 16.4198C30.272 16.3652 30.3714 16.3379 30.4936 16.3379C30.5947 16.3379 30.6804 16.357 30.7507 16.3952C30.8217 16.4328 30.8719 16.4874 30.9012 16.5591C30.9149 16.5912 30.9238 16.6271 30.9279 16.6667C30.932 16.7063 30.934 16.7465 30.934 16.7875V17.4747H30.7998V17.1972L30.8388 17.2136C30.8012 17.3085 30.7428 17.3809 30.6636 17.4307C30.5844 17.4806 30.4895 17.5055 30.3789 17.5055ZM30.3963 17.3754C30.4666 17.3754 30.5281 17.3628 30.5807 17.3375C30.6332 17.3122 30.6756 17.2778 30.7077 17.2341C30.7398 17.1897 30.7606 17.1398 30.7701 17.0845C30.7783 17.049 30.7828 17.0101 30.7835 16.9678C30.7841 16.9248 30.7845 16.8927 30.7845 16.8715L30.8418 16.9012C30.7906 16.908 30.735 16.9149 30.6749 16.9217C30.6155 16.9285 30.5568 16.9364 30.4987 16.9452C30.4414 16.9541 30.3895 16.9647 30.3431 16.977C30.3116 16.9859 30.2813 16.9985 30.2519 17.0149C30.2225 17.0306 30.1983 17.0518 30.1792 17.0784C30.1608 17.105 30.1515 17.1381 30.1515 17.1777C30.1515 17.2098 30.1594 17.2409 30.1751 17.2709C30.1915 17.301 30.2174 17.3259 30.2529 17.3457C30.2891 17.3655 30.3369 17.3754 30.3963 17.3754Z" fill="white"/>
<path d="M28.8062 17.4748V16H29.3756C29.4582 16 29.5303 16.0171 29.5917 16.0512C29.6532 16.0853 29.701 16.1314 29.7351 16.1895C29.7692 16.2468 29.7863 16.3103 29.7863 16.38C29.7863 16.4592 29.7651 16.5299 29.7228 16.592C29.6805 16.6534 29.6238 16.6961 29.5528 16.72L29.5507 16.6698C29.6463 16.6971 29.7214 16.7449 29.7761 16.8132C29.8307 16.8815 29.858 16.9641 29.858 17.0611C29.858 17.1464 29.8399 17.2202 29.8037 17.2823C29.7675 17.3437 29.7167 17.3912 29.6511 17.4247C29.5856 17.4581 29.5094 17.4748 29.4227 17.4748H28.8062ZM28.9577 17.3304H29.3858C29.4459 17.3304 29.4999 17.3198 29.5477 17.2987C29.5955 17.2768 29.633 17.2461 29.6603 17.2065C29.6883 17.1669 29.7023 17.1191 29.7023 17.0631C29.7023 17.0085 29.6897 16.9593 29.6644 16.9156C29.6392 16.8719 29.6047 16.8371 29.561 16.8112C29.518 16.7845 29.4688 16.7712 29.4135 16.7712H28.9577V17.3304ZM28.9577 16.6289H29.3746C29.4217 16.6289 29.4647 16.6183 29.5036 16.5971C29.5425 16.5753 29.5733 16.5456 29.5958 16.508C29.619 16.4704 29.6306 16.4271 29.6306 16.3779C29.6306 16.3083 29.6064 16.2516 29.5579 16.2079C29.5101 16.1642 29.449 16.1424 29.3746 16.1424H28.9577V16.6289Z" fill="white"/>
<path d="M27.6112 17.5056C27.5081 17.5056 27.42 17.48 27.347 17.4288C27.2739 17.3769 27.2179 17.3069 27.179 17.2188C27.1401 17.1307 27.1206 17.0314 27.1206 16.9208C27.1206 16.8108 27.1397 16.7118 27.178 16.6237C27.2169 16.5357 27.2725 16.466 27.3449 16.4148C27.4173 16.3636 27.504 16.338 27.605 16.338C27.7088 16.338 27.7962 16.3632 27.8672 16.4138C27.9383 16.4643 27.9919 16.5336 28.028 16.6217C28.0649 16.7091 28.0833 16.8088 28.0833 16.9208C28.0833 17.0307 28.0653 17.13 28.0291 17.2188C27.9929 17.3069 27.9396 17.3769 27.8693 17.4288C27.799 17.48 27.7129 17.5056 27.6112 17.5056ZM27.6266 17.3653C27.7051 17.3653 27.7699 17.3461 27.8212 17.3079C27.8724 17.2697 27.9106 17.2171 27.9359 17.1502C27.9611 17.0826 27.9738 17.0061 27.9738 16.9208C27.9738 16.834 27.9611 16.7576 27.9359 16.6913C27.9106 16.6244 27.8724 16.5722 27.8212 16.5346C27.7706 16.4971 27.7068 16.4783 27.6296 16.4783C27.5504 16.4783 27.4849 16.4978 27.433 16.5367C27.3811 16.5756 27.3425 16.6285 27.3173 16.6954C27.2927 16.7623 27.2804 16.8375 27.2804 16.9208C27.2804 17.0047 27.293 17.0805 27.3183 17.1481C27.3442 17.215 27.3828 17.268 27.434 17.3069C27.4852 17.3458 27.5494 17.3653 27.6266 17.3653ZM27.9738 17.4748V16.6422H27.9574V16H28.109V17.4748H27.9738Z" fill="white"/>
<path d="M26.4519 17.5055C26.344 17.5055 26.2504 17.4816 26.1712 17.4338C26.0927 17.386 26.0316 17.3187 25.9879 17.232C25.9442 17.1453 25.9224 17.0436 25.9224 16.9268C25.9224 16.8059 25.9439 16.7015 25.9869 16.6134C26.0299 16.5253 26.0903 16.4574 26.1682 16.4096C26.2467 16.3618 26.3392 16.3379 26.4457 16.3379C26.555 16.3379 26.6482 16.3632 26.7253 16.4137C26.8025 16.4635 26.8609 16.5352 26.9005 16.6288C26.9401 16.7223 26.9582 16.8339 26.9548 16.9637H26.8011V16.9104C26.7984 16.767 26.7673 16.6588 26.7079 16.5857C26.6492 16.5127 26.5632 16.4762 26.4498 16.4762C26.331 16.4762 26.2399 16.5147 26.1764 16.5919C26.1135 16.669 26.0821 16.779 26.0821 16.9217C26.0821 17.061 26.1135 17.1692 26.1764 17.2464C26.2399 17.3228 26.3297 17.3611 26.4457 17.3611C26.5249 17.3611 26.5939 17.343 26.6526 17.3068C26.712 17.2699 26.7588 17.217 26.7929 17.148L26.9332 17.2023C26.8895 17.2986 26.825 17.3734 26.7397 17.4266C26.655 17.4792 26.5591 17.5055 26.4519 17.5055ZM26.0289 16.9637V16.8377H26.8738V16.9637H26.0289Z" fill="white"/>
<path d="M25.2823 17.4748L24.8809 16.3687H25.0335L25.3602 17.2781L25.6849 16.3687H25.8395L25.438 17.4748H25.2823Z" fill="white"/>
<path d="M24.2729 17.5055C24.1629 17.5055 24.0691 17.4806 23.9912 17.4307C23.9134 17.3809 23.8536 17.3119 23.812 17.2238C23.7703 17.1357 23.7495 17.0347 23.7495 16.9207C23.7495 16.8046 23.7707 16.7028 23.813 16.6154C23.8553 16.528 23.9154 16.4601 23.9933 16.4116C24.0718 16.3625 24.165 16.3379 24.2729 16.3379C24.3835 16.3379 24.4777 16.3628 24.5556 16.4127C24.6341 16.4618 24.6938 16.5304 24.7348 16.6185C24.7764 16.7059 24.7973 16.8066 24.7973 16.9207C24.7973 17.0367 24.7764 17.1388 24.7348 17.2269C24.6931 17.3143 24.6331 17.3826 24.5545 17.4317C24.476 17.4809 24.3821 17.5055 24.2729 17.5055ZM24.2729 17.3611C24.3958 17.3611 24.4873 17.3204 24.5474 17.2392C24.6074 17.1572 24.6375 17.0511 24.6375 16.9207C24.6375 16.7868 24.6071 16.6803 24.5463 16.6011C24.4862 16.5219 24.3951 16.4823 24.2729 16.4823C24.1903 16.4823 24.122 16.5011 24.068 16.5386C24.0148 16.5755 23.9748 16.6271 23.9482 16.6933C23.9223 16.7588 23.9093 16.8346 23.9093 16.9207C23.9093 17.0538 23.94 17.1607 24.0015 17.2412C24.0629 17.3211 24.1534 17.3611 24.2729 17.3611Z" fill="white"/>
<path d="M23.0933 17.4747V16.3686H23.2285V16.6349L23.2018 16.6001C23.2141 16.5673 23.2302 16.5372 23.25 16.5099C23.2698 16.4819 23.2913 16.4591 23.3145 16.4413C23.3432 16.416 23.3766 16.3969 23.4149 16.384C23.4531 16.3703 23.4917 16.3624 23.5306 16.3604C23.5695 16.3577 23.605 16.3604 23.6371 16.3686V16.5099C23.5968 16.4997 23.5528 16.4973 23.505 16.5028C23.4572 16.5082 23.4132 16.5273 23.3729 16.5601C23.336 16.5888 23.3083 16.6233 23.2899 16.6636C23.2715 16.7032 23.2592 16.7455 23.253 16.7906C23.2469 16.8349 23.2438 16.879 23.2438 16.9227V17.4747H23.0933Z" fill="white"/>
<path d="M22.3776 17.5055C22.2759 17.5055 22.1899 17.4799 22.1195 17.4287C22.0492 17.3768 21.996 17.3068 21.9598 17.2187C21.9236 17.1299 21.9055 17.0306 21.9055 16.9207C21.9055 16.8087 21.9236 16.709 21.9598 16.6216C21.9966 16.5335 22.0506 16.4642 22.1216 16.4137C22.1926 16.3632 22.28 16.3379 22.3838 16.3379C22.4848 16.3379 22.5716 16.3635 22.6439 16.4147C22.7163 16.4659 22.7716 16.5356 22.8099 16.6236C22.8488 16.7117 22.8682 16.8107 22.8682 16.9207C22.8682 17.0313 22.8488 17.1306 22.8099 17.2187C22.7709 17.3068 22.7149 17.3768 22.6419 17.4287C22.5688 17.4799 22.4807 17.5055 22.3776 17.5055ZM21.8799 17.9664V16.3686H22.0151V17.2013H22.0315V17.9664H21.8799ZM22.3623 17.3652C22.4394 17.3652 22.5036 17.3457 22.5548 17.3068C22.606 17.2679 22.6443 17.2149 22.6695 17.148C22.6955 17.0804 22.7085 17.0046 22.7085 16.9207C22.7085 16.8374 22.6958 16.7622 22.6706 16.6953C22.6453 16.6284 22.6067 16.5755 22.5548 16.5366C22.5036 16.4977 22.4384 16.4782 22.3592 16.4782C22.2821 16.4782 22.2179 16.497 22.1667 16.5345C22.1161 16.5721 22.0782 16.6243 22.053 16.6912C22.0277 16.7575 22.0151 16.8339 22.0151 16.9207C22.0151 17.006 22.0277 17.0825 22.053 17.1501C22.0782 17.217 22.1165 17.2696 22.1677 17.3078C22.2189 17.346 22.2838 17.3652 22.3623 17.3652Z" fill="white"/>
<path d="M21.1652 17.5055C21.0635 17.5055 20.9775 17.4799 20.9071 17.4287C20.8368 17.3768 20.7836 17.3068 20.7474 17.2187C20.7112 17.1299 20.6931 17.0306 20.6931 16.9207C20.6931 16.8087 20.7112 16.709 20.7474 16.6216C20.7842 16.5335 20.8382 16.4642 20.9092 16.4137C20.9802 16.3632 21.0676 16.3379 21.1714 16.3379C21.2724 16.3379 21.3592 16.3635 21.4315 16.4147C21.5039 16.4659 21.5592 16.5356 21.5975 16.6236C21.6364 16.7117 21.6558 16.8107 21.6558 16.9207C21.6558 17.0313 21.6364 17.1306 21.5975 17.2187C21.5585 17.3068 21.5025 17.3768 21.4295 17.4287C21.3564 17.4799 21.2683 17.5055 21.1652 17.5055ZM20.6675 17.9664V16.3686H20.8027V17.2013H20.8191V17.9664H20.6675ZM21.1499 17.3652C21.227 17.3652 21.2912 17.3457 21.3424 17.3068C21.3936 17.2679 21.4319 17.2149 21.4571 17.148C21.4831 17.0804 21.4961 17.0046 21.4961 16.9207C21.4961 16.8374 21.4834 16.7622 21.4582 16.6953C21.4329 16.6284 21.3943 16.5755 21.3424 16.5366C21.2912 16.4977 21.226 16.4782 21.1468 16.4782C21.0696 16.4782 21.0055 16.497 20.9543 16.5345C20.9037 16.5721 20.8658 16.6243 20.8406 16.6912C20.8153 16.7575 20.8027 16.8339 20.8027 16.9207C20.8027 17.006 20.8153 17.0825 20.8406 17.1501C20.8658 17.217 20.9041 17.2696 20.9553 17.3078C21.0065 17.346 21.0714 17.3652 21.1499 17.3652Z" fill="white"/>
<path d="M19.8467 17.5055C19.7634 17.5055 19.6934 17.4905 19.6367 17.4604C19.5807 17.4304 19.5387 17.3904 19.5107 17.3406C19.4827 17.2907 19.4688 17.2365 19.4688 17.1777C19.4688 17.1176 19.4807 17.0664 19.5046 17.0241C19.5292 16.9811 19.5623 16.9459 19.6039 16.9186C19.6463 16.8913 19.6951 16.8705 19.7504 16.8561C19.8064 16.8425 19.8682 16.8305 19.9358 16.8203C20.0041 16.8094 20.0706 16.8001 20.1355 16.7926C20.201 16.7844 20.2584 16.7766 20.3076 16.7691L20.2543 16.8019C20.2564 16.6926 20.2352 16.6117 20.1908 16.5591C20.1464 16.5065 20.0693 16.4803 19.9593 16.4803C19.8835 16.4803 19.8194 16.4973 19.7668 16.5315C19.7149 16.5656 19.6784 16.6195 19.6572 16.6933L19.5107 16.6503C19.536 16.5513 19.5869 16.4745 19.6633 16.4198C19.7398 16.3652 19.8392 16.3379 19.9614 16.3379C20.0624 16.3379 20.1481 16.357 20.2185 16.3952C20.2895 16.4328 20.3397 16.4874 20.369 16.5591C20.3827 16.5912 20.3916 16.6271 20.3956 16.6667C20.3997 16.7063 20.4018 16.7465 20.4018 16.7875V17.4747H20.2676V17.1972L20.3065 17.2136C20.269 17.3085 20.2106 17.3809 20.1314 17.4307C20.0522 17.4806 19.9573 17.5055 19.8467 17.5055ZM19.8641 17.3754C19.9344 17.3754 19.9959 17.3628 20.0484 17.3375C20.101 17.3122 20.1434 17.2778 20.1754 17.2341C20.2075 17.1897 20.2284 17.1398 20.2379 17.0845C20.2461 17.049 20.2506 17.0101 20.2512 16.9678C20.2519 16.9248 20.2523 16.8927 20.2523 16.8715L20.3096 16.9012C20.2584 16.908 20.2028 16.9149 20.1427 16.9217C20.0833 16.9285 20.0245 16.9364 19.9665 16.9452C19.9092 16.9541 19.8573 16.9647 19.8108 16.977C19.7794 16.9859 19.749 16.9985 19.7197 17.0149C19.6903 17.0306 19.6661 17.0518 19.647 17.0784C19.6285 17.105 19.6193 17.1381 19.6193 17.1777C19.6193 17.2098 19.6272 17.2409 19.6429 17.2709C19.6593 17.301 19.6852 17.3259 19.7207 17.3457C19.7569 17.3655 19.8047 17.3754 19.8641 17.3754Z" fill="white"/>
<path d="M18.6626 17.4748V16H18.8132V17.4748H18.6626Z" fill="white"/>
<path d="M17.3857 17.4748V16H17.9552C18.0378 16 18.1098 16.0171 18.1713 16.0512C18.2328 16.0853 18.2805 16.1314 18.3147 16.1895C18.3488 16.2468 18.3659 16.3103 18.3659 16.38C18.3659 16.4592 18.3447 16.5299 18.3024 16.592C18.2601 16.6534 18.2034 16.6961 18.1324 16.72L18.1303 16.6698C18.2259 16.6971 18.301 16.7449 18.3557 16.8132C18.4103 16.8815 18.4376 16.9641 18.4376 17.0611C18.4376 17.1464 18.4195 17.2202 18.3833 17.2823C18.3471 17.3437 18.2963 17.3912 18.2307 17.4247C18.1652 17.4581 18.089 17.4748 18.0023 17.4748H17.3857ZM17.5373 17.3304H17.9654C18.0255 17.3304 18.0795 17.3198 18.1273 17.2987C18.1751 17.2768 18.2126 17.2461 18.2399 17.2065C18.2679 17.1669 18.2819 17.1191 18.2819 17.0631C18.2819 17.0085 18.2693 16.9593 18.244 16.9156C18.2188 16.8719 18.1843 16.8371 18.1406 16.8112C18.0976 16.7845 18.0484 16.7712 17.9931 16.7712H17.5373V17.3304ZM17.5373 16.6289H17.9542C18.0013 16.6289 18.0443 16.6183 18.0832 16.5971C18.1221 16.5753 18.1529 16.5456 18.1754 16.508C18.1986 16.4704 18.2102 16.4271 18.2102 16.3779C18.2102 16.3083 18.186 16.2516 18.1375 16.2079C18.0897 16.1642 18.0286 16.1424 17.9542 16.1424H17.5373V16.6289Z" fill="white"/>
<path d="M16.0938 17.4748V16H16.6632C16.6775 16 16.6936 16.0007 16.7113 16.002C16.7298 16.0027 16.7482 16.0048 16.7666 16.0082C16.8438 16.0198 16.909 16.0468 16.9623 16.0891C17.0162 16.1308 17.0568 16.1833 17.0841 16.2468C17.1121 16.3103 17.1261 16.3807 17.1261 16.4578C17.1261 16.5691 17.0968 16.6657 17.0381 16.7477C16.9793 16.8296 16.8954 16.8811 16.7861 16.9023L16.7339 16.9146H16.2443V17.4748H16.0938ZM16.9868 17.4748L16.696 16.8747L16.8404 16.8194L17.1599 17.4748H16.9868ZM16.2443 16.7712H16.6591C16.6714 16.7712 16.6857 16.7705 16.7021 16.7692C16.7185 16.7678 16.7346 16.7654 16.7503 16.762C16.8008 16.7511 16.8421 16.7303 16.8742 16.6995C16.907 16.6688 16.9312 16.6323 16.9469 16.5899C16.9633 16.5476 16.9715 16.5036 16.9715 16.4578C16.9715 16.4121 16.9633 16.368 16.9469 16.3257C16.9312 16.2827 16.907 16.2458 16.8742 16.2151C16.8421 16.1844 16.8008 16.1635 16.7503 16.1526C16.7346 16.1492 16.7185 16.1471 16.7021 16.1465C16.6857 16.1451 16.6714 16.1444 16.6591 16.1444H16.2443V16.7712Z" fill="white"/>
<path d="M14.761 17.9664L14.975 17.3857L14.9781 17.5577L14.4937 16.3687H14.6534L15.0508 17.3631H14.9853L15.3519 16.3687H15.5056L14.9115 17.9664H14.761Z" fill="white"/>
<path d="M13.9421 17.5056C13.8404 17.5056 13.7543 17.48 13.684 17.4288C13.6137 17.3769 13.5604 17.3069 13.5242 17.2188C13.488 17.13 13.4699 17.0307 13.4699 16.9208C13.4699 16.8088 13.488 16.7091 13.5242 16.6217C13.5611 16.5336 13.615 16.4643 13.686 16.4138C13.7571 16.3632 13.8445 16.338 13.9482 16.338C14.0493 16.338 14.136 16.3636 14.2084 16.4148C14.2808 16.466 14.3361 16.5357 14.3743 16.6237C14.4132 16.7118 14.4327 16.8108 14.4327 16.9208C14.4327 17.0314 14.4132 17.1307 14.3743 17.2188C14.3354 17.3069 14.2794 17.3769 14.2063 17.4288C14.1333 17.48 14.0452 17.5056 13.9421 17.5056ZM13.4443 17.4748V16H13.5959V16.6422H13.5795V17.4748H13.4443ZM13.9267 17.3653C14.0039 17.3653 14.0681 17.3458 14.1193 17.3069C14.1705 17.268 14.2087 17.215 14.234 17.1481C14.2599 17.0805 14.2729 17.0047 14.2729 16.9208C14.2729 16.8375 14.2603 16.7623 14.235 16.6954C14.2098 16.6285 14.1712 16.5756 14.1193 16.5367C14.0681 16.4978 14.0029 16.4783 13.9237 16.4783C13.8465 16.4783 13.7823 16.4971 13.7311 16.5346C13.6806 16.5722 13.6427 16.6244 13.6174 16.6913C13.5922 16.7576 13.5795 16.834 13.5795 16.9208C13.5795 17.0061 13.5922 17.0826 13.6174 17.1502C13.6427 17.2171 13.6809 17.2697 13.7321 17.3079C13.7833 17.3461 13.8482 17.3653 13.9267 17.3653Z" fill="white"/>
<path d="M12.2499 17.5056C12.1468 17.5056 12.0587 17.48 11.9856 17.4288C11.9126 17.3769 11.8566 17.3069 11.8177 17.2188C11.7787 17.1307 11.7593 17.0314 11.7593 16.9208C11.7593 16.8108 11.7784 16.7118 11.8166 16.6237C11.8556 16.5357 11.9112 16.466 11.9836 16.4148C12.056 16.3636 12.1427 16.338 12.2437 16.338C12.3475 16.338 12.4349 16.3632 12.5059 16.4138C12.5769 16.4643 12.6305 16.5336 12.6667 16.6217C12.7036 16.7091 12.722 16.8088 12.722 16.9208C12.722 17.0307 12.7039 17.13 12.6677 17.2188C12.6316 17.3069 12.5783 17.3769 12.508 17.4288C12.4376 17.48 12.3516 17.5056 12.2499 17.5056ZM12.2652 17.3653C12.3438 17.3653 12.4086 17.3461 12.4598 17.3079C12.511 17.2697 12.5493 17.2171 12.5745 17.1502C12.5998 17.0826 12.6124 17.0061 12.6124 16.9208C12.6124 16.834 12.5998 16.7576 12.5745 16.6913C12.5493 16.6244 12.511 16.5722 12.4598 16.5346C12.4093 16.4971 12.3455 16.4783 12.2683 16.4783C12.1891 16.4783 12.1235 16.4978 12.0717 16.5367C12.0198 16.5756 11.9812 16.6285 11.9559 16.6954C11.9313 16.7623 11.9191 16.8375 11.9191 16.9208C11.9191 17.0047 11.9317 17.0805 11.9569 17.1481C11.9829 17.215 12.0215 17.268 12.0727 17.3069C12.1239 17.3458 12.1881 17.3653 12.2652 17.3653ZM12.6124 17.4748V16.6422H12.596V16H12.7476V17.4748H12.6124Z" fill="white"/>
<path d="M11.0905 17.5055C10.9827 17.5055 10.8891 17.4816 10.8099 17.4338C10.7314 17.386 10.6703 17.3187 10.6266 17.232C10.5829 17.1453 10.561 17.0436 10.561 16.9268C10.561 16.8059 10.5825 16.7015 10.6256 16.6134C10.6686 16.5253 10.729 16.4574 10.8068 16.4096C10.8854 16.3618 10.9779 16.3379 11.0844 16.3379C11.1936 16.3379 11.2868 16.3632 11.364 16.4137C11.4412 16.4635 11.4995 16.5352 11.5391 16.6288C11.5787 16.7223 11.5968 16.8339 11.5934 16.9637H11.4398V16.9104C11.4371 16.767 11.406 16.6588 11.3466 16.5857C11.2879 16.5127 11.2018 16.4762 11.0885 16.4762C10.9697 16.4762 10.8785 16.5147 10.815 16.5919C10.7522 16.669 10.7208 16.779 10.7208 16.9217C10.7208 17.061 10.7522 17.1692 10.815 17.2464C10.8785 17.3228 10.9683 17.3611 11.0844 17.3611C11.1636 17.3611 11.2326 17.343 11.2913 17.3068C11.3507 17.2699 11.3975 17.217 11.4316 17.148L11.5719 17.2023C11.5282 17.2986 11.4637 17.3734 11.3783 17.4266C11.2937 17.4792 11.1977 17.5055 11.0905 17.5055ZM10.6676 16.9637V16.8377H11.5125V16.9637H10.6676Z" fill="white"/>
<path d="M9.82922 17.5024C9.76299 17.5024 9.70495 17.4922 9.65511 17.4717C9.60594 17.4512 9.56395 17.4236 9.52913 17.3888C9.49499 17.3539 9.46734 17.3143 9.44617 17.2699C9.425 17.2249 9.40964 17.1774 9.40008 17.1276C9.39052 17.0771 9.38574 17.0269 9.38574 16.977V16.3687H9.53732V16.933C9.53732 16.9938 9.54313 17.0501 9.55473 17.102C9.56634 17.1539 9.58478 17.1993 9.61004 17.2382C9.63599 17.2764 9.6691 17.3061 9.70939 17.3273C9.75036 17.3485 9.79986 17.359 9.8579 17.359C9.91115 17.359 9.95793 17.3498 9.99821 17.3314C10.0392 17.313 10.0733 17.2867 10.1006 17.2525C10.1286 17.2177 10.1498 17.1757 10.1641 17.1266C10.1785 17.0767 10.1856 17.0207 10.1856 16.9586L10.2922 16.9821C10.2922 17.0955 10.2724 17.1907 10.2328 17.2679C10.1932 17.3451 10.1385 17.4034 10.0689 17.443C9.99924 17.4826 9.91935 17.5024 9.82922 17.5024ZM10.201 17.4748V17.2023H10.1856V16.3687H10.3362V17.4748H10.201Z" fill="white"/>
<path d="M8.74276 17.5044C8.61303 17.5044 8.50617 17.4765 8.42218 17.4205C8.33888 17.3645 8.28767 17.2866 8.26855 17.1869L8.42218 17.1613C8.43857 17.2242 8.47578 17.2743 8.53382 17.3119C8.59254 17.3488 8.66492 17.3672 8.75095 17.3672C8.83494 17.3672 8.90117 17.3498 8.94965 17.315C8.99812 17.2795 9.02236 17.2313 9.02236 17.1706C9.02236 17.1364 9.01451 17.1088 8.99881 17.0876C8.98378 17.0658 8.95272 17.0456 8.9056 17.0272C8.85849 17.0087 8.78816 16.9869 8.69462 16.9616C8.59425 16.9343 8.51573 16.907 8.45906 16.8797C8.40238 16.8524 8.3621 16.821 8.3382 16.7855C8.3143 16.7493 8.30235 16.7052 8.30235 16.6533C8.30235 16.5905 8.32011 16.5356 8.35561 16.4884C8.39112 16.4407 8.44028 16.4038 8.5031 16.3778C8.56591 16.3512 8.63897 16.3379 8.72227 16.3379C8.80557 16.3379 8.88 16.3515 8.94555 16.3789C9.01178 16.4055 9.06504 16.443 9.10532 16.4915C9.14561 16.54 9.16951 16.5963 9.17702 16.6605L9.02339 16.6882C9.01315 16.6233 8.98071 16.5721 8.92609 16.5345C8.87215 16.4963 8.80353 16.4765 8.72023 16.4751C8.6417 16.4731 8.57786 16.4881 8.5287 16.5202C8.47954 16.5516 8.45496 16.5936 8.45496 16.6462C8.45496 16.6755 8.46383 16.7008 8.48159 16.722C8.49934 16.7424 8.53143 16.7619 8.57786 16.7803C8.62498 16.7988 8.69189 16.8189 8.7786 16.8408C8.88034 16.8667 8.96023 16.894 9.01827 16.9227C9.0763 16.9514 9.11761 16.9852 9.14219 17.0241C9.16677 17.063 9.17906 17.1112 9.17906 17.1685C9.17906 17.273 9.14015 17.3553 9.06231 17.4153C8.98515 17.4747 8.87863 17.5044 8.74276 17.5044Z" fill="white"/>
<path d="M7.66659 17.5044C7.53685 17.5044 7.43 17.4765 7.34601 17.4205C7.26271 17.3645 7.2115 17.2866 7.19238 17.1869L7.34601 17.1613C7.3624 17.2242 7.39961 17.2743 7.45765 17.3119C7.51637 17.3488 7.58875 17.3672 7.67478 17.3672C7.75876 17.3672 7.82499 17.3498 7.87347 17.315C7.92195 17.2795 7.94619 17.2313 7.94619 17.1706C7.94619 17.1364 7.93834 17.1088 7.92263 17.0876C7.90761 17.0658 7.87655 17.0456 7.82943 17.0272C7.78232 17.0087 7.71199 16.9869 7.61845 16.9616C7.51808 16.9343 7.43956 16.907 7.38288 16.8797C7.32621 16.8524 7.28593 16.821 7.26203 16.7855C7.23813 16.7493 7.22618 16.7052 7.22618 16.6533C7.22618 16.5905 7.24393 16.5356 7.27944 16.4884C7.31494 16.4407 7.36411 16.4038 7.42692 16.3778C7.48974 16.3512 7.5628 16.3379 7.6461 16.3379C7.7294 16.3379 7.80383 16.3515 7.86938 16.3789C7.93561 16.4055 7.98887 16.443 8.02915 16.4915C8.06944 16.54 8.09333 16.5963 8.10084 16.6605L7.94722 16.6882C7.93697 16.6233 7.90454 16.5721 7.84992 16.5345C7.79598 16.4963 7.72735 16.4765 7.64405 16.4751C7.56553 16.4731 7.50169 16.4881 7.45253 16.5202C7.40337 16.5516 7.37879 16.5936 7.37879 16.6462C7.37879 16.6755 7.38766 16.7008 7.40542 16.722C7.42317 16.7424 7.45526 16.7619 7.50169 16.7803C7.5488 16.7988 7.61572 16.8189 7.70243 16.8408C7.80417 16.8667 7.88406 16.894 7.94209 16.9227C8.00013 16.9514 8.04144 16.9852 8.06602 17.0241C8.0906 17.063 8.10289 17.1112 8.10289 17.1685C8.10289 17.273 8.06397 17.3553 7.98613 17.4153C7.90898 17.4747 7.80246 17.5044 7.66659 17.5044Z" fill="white"/>
<path d="M6.79639 17.4748V16H6.94694V17.4748H6.79639Z" fill="white"/>
<path d="M6.00362 16.677L5.89096 16.5951L6.05278 16.3861L5.7998 16.3093L5.84282 16.1772L6.0917 16.2653L6.08556 16H6.22485L6.2187 16.2653L6.46656 16.1772L6.50957 16.3093L6.25762 16.3861L6.41739 16.5951L6.30473 16.677L6.1552 16.4599L6.00362 16.677Z" fill="white"/>
<path d="M29.9264 19.9625C29.7966 19.9625 29.6898 19.9345 29.6058 19.8785C29.5225 19.8225 29.4713 19.7446 29.4521 19.645L29.6058 19.6194C29.6222 19.6822 29.6594 19.7324 29.7174 19.7699C29.7761 19.8068 29.8485 19.8252 29.9345 19.8252C30.0185 19.8252 30.0848 19.8078 30.1332 19.773C30.1817 19.7375 30.206 19.6893 30.206 19.6286C30.206 19.5944 30.1981 19.5668 30.1824 19.5456C30.1674 19.5238 30.1363 19.5036 30.0892 19.4852C30.0421 19.4667 29.9718 19.4449 29.8782 19.4196C29.7778 19.3923 29.6993 19.365 29.6426 19.3377C29.586 19.3104 29.5457 19.279 29.5218 19.2435C29.4979 19.2073 29.4859 19.1632 29.4859 19.1114C29.4859 19.0485 29.5037 18.9936 29.5392 18.9465C29.5747 18.8987 29.6239 18.8618 29.6867 18.8358C29.7495 18.8092 29.8226 18.7959 29.9059 18.7959C29.9892 18.7959 30.0636 18.8096 30.1291 18.8369C30.1954 18.8635 30.2486 18.901 30.2889 18.9495C30.3292 18.998 30.3531 19.0543 30.3606 19.1185L30.207 19.1462C30.1967 19.0813 30.1643 19.0301 30.1097 18.9925C30.0557 18.9543 29.9871 18.9345 29.9038 18.9331C29.8253 18.9311 29.7615 18.9461 29.7123 18.9782C29.6631 19.0096 29.6386 19.0516 29.6386 19.1042C29.6386 19.1335 29.6474 19.1588 29.6652 19.18C29.6829 19.2005 29.715 19.2199 29.7615 19.2384C29.8086 19.2568 29.8755 19.2769 29.9622 19.2988C30.0639 19.3247 30.1438 19.352 30.2019 19.3807C30.2599 19.4094 30.3012 19.4432 30.3258 19.4821C30.3504 19.521 30.3627 19.5692 30.3627 19.6265C30.3627 19.731 30.3237 19.8133 30.2459 19.8734C30.1687 19.9328 30.0622 19.9625 29.9264 19.9625Z" fill="white"/>
<path d="M29.0963 19.9326V19.3683C29.0963 19.3068 29.0905 19.2505 29.0789 19.1993C29.0673 19.1474 29.0485 19.1023 29.0225 19.0641C28.9973 19.0252 28.9642 18.9951 28.9232 18.974C28.8829 18.9528 28.8337 18.9422 28.7757 18.9422C28.7225 18.9422 28.6753 18.9514 28.6344 18.9699C28.5941 18.9883 28.5599 19.0149 28.532 19.0498C28.5046 19.0839 28.4838 19.1255 28.4695 19.1747C28.4551 19.2239 28.448 19.2799 28.448 19.3427L28.3415 19.3191C28.3415 19.2058 28.3613 19.1105 28.4009 19.0334C28.4405 18.9562 28.4951 18.8978 28.5647 18.8582C28.6344 18.8186 28.7143 18.7988 28.8044 18.7988C28.8706 18.7988 28.9283 18.8091 28.9775 18.8296C29.0273 18.85 29.0693 18.8777 29.1035 18.9125C29.1383 18.9473 29.1663 18.9873 29.1874 19.0323C29.2086 19.0767 29.224 19.1242 29.2335 19.1747C29.2431 19.2246 29.2479 19.2744 29.2479 19.3242V19.9326H29.0963ZM28.2964 19.9326V18.8265H28.4326V19.0989H28.448V19.9326H28.2964Z" fill="white"/>
<path d="M27.5473 19.9635C27.4374 19.9635 27.3435 19.9386 27.2656 19.8887C27.1878 19.8389 27.1281 19.7699 27.0864 19.6818C27.0448 19.5937 27.0239 19.4927 27.0239 19.3787C27.0239 19.2626 27.0451 19.1609 27.0874 19.0735C27.1298 18.9861 27.1898 18.9181 27.2677 18.8696C27.3462 18.8205 27.4394 18.7959 27.5473 18.7959C27.6579 18.7959 27.7521 18.8208 27.83 18.8707C27.9085 18.9198 27.9682 18.9884 28.0092 19.0765C28.0509 19.1639 28.0717 19.2646 28.0717 19.3787C28.0717 19.4947 28.0509 19.5968 28.0092 19.6849C27.9676 19.7723 27.9075 19.8406 27.8289 19.8897C27.7504 19.9389 27.6565 19.9635 27.5473 19.9635ZM27.5473 19.8191C27.6702 19.8191 27.7617 19.7784 27.8218 19.6972C27.8819 19.6153 27.9119 19.5091 27.9119 19.3787C27.9119 19.2448 27.8815 19.1383 27.8207 19.0591C27.7607 18.9799 27.6695 18.9403 27.5473 18.9403C27.4647 18.9403 27.3964 18.9591 27.3425 18.9966C27.2892 19.0335 27.2492 19.0851 27.2226 19.1513C27.1967 19.2168 27.1837 19.2926 27.1837 19.3787C27.1837 19.5118 27.2144 19.6187 27.2759 19.6992C27.3373 19.7791 27.4278 19.8191 27.5473 19.8191Z" fill="white"/>
<path d="M26.6279 18.6167V18.4478H26.7785V18.6167H26.6279ZM26.6279 19.9328V18.8267H26.7785V19.9328H26.6279Z" fill="white"/>
<path d="M26.3892 19.9329C26.3271 19.9459 26.2656 19.951 26.2048 19.9483C26.1448 19.9456 26.0908 19.9326 26.043 19.9094C25.9959 19.8862 25.9601 19.85 25.9355 19.8008C25.9157 19.7598 25.9047 19.7185 25.9027 19.6769C25.9013 19.6345 25.9007 19.5864 25.9007 19.5325V18.5195H26.0502V19.5263C26.0502 19.5727 26.0505 19.6117 26.0512 19.6431C26.0526 19.6738 26.0597 19.7011 26.0727 19.725C26.0973 19.7708 26.1362 19.7981 26.1895 19.8069C26.2434 19.8158 26.31 19.8138 26.3892 19.8008V19.9329ZM25.6641 18.9558V18.8268H26.3892V18.9558H25.6641Z" fill="white"/>
<path d="M24.9938 19.9604C24.9275 19.9604 24.8695 19.9502 24.8197 19.9297C24.7705 19.9092 24.7285 19.8816 24.6937 19.8468C24.6595 19.8119 24.6319 19.7723 24.6107 19.728C24.5896 19.6829 24.5742 19.6354 24.5646 19.5856C24.5551 19.5351 24.5503 19.4849 24.5503 19.435V18.8267H24.7019V19.391C24.7019 19.4518 24.7077 19.5081 24.7193 19.56C24.7309 19.6119 24.7493 19.6573 24.7746 19.6962C24.8005 19.7344 24.8337 19.7641 24.8739 19.7853C24.9149 19.8065 24.9644 19.8171 25.0224 19.8171C25.0757 19.8171 25.1225 19.8078 25.1628 19.7894C25.2037 19.771 25.2379 19.7447 25.2652 19.7105C25.2932 19.6757 25.3143 19.6337 25.3287 19.5846C25.343 19.5347 25.3502 19.4787 25.3502 19.4166L25.4567 19.4402C25.4567 19.5535 25.4369 19.6487 25.3973 19.7259C25.3577 19.8031 25.3031 19.8614 25.2334 19.901C25.1638 19.9406 25.0839 19.9604 24.9938 19.9604ZM25.3656 19.9328V19.6604H25.3502V18.8267H25.5007V19.9328H25.3656Z" fill="white"/>
<path d="M24.3531 19.9329C24.2909 19.9459 24.2295 19.951 24.1687 19.9483C24.1086 19.9456 24.0547 19.9326 24.0069 19.9094C23.9598 19.8862 23.9239 19.85 23.8993 19.8008C23.8795 19.7598 23.8686 19.7185 23.8666 19.6769C23.8652 19.6345 23.8645 19.5864 23.8645 19.5325V18.5195H24.0141V19.5263C24.0141 19.5727 24.0144 19.6117 24.0151 19.6431C24.0164 19.6738 24.0236 19.7011 24.0366 19.725C24.0612 19.7708 24.1001 19.7981 24.1533 19.8069C24.2073 19.8158 24.2739 19.8138 24.3531 19.8008V19.9329ZM23.6279 18.9558V18.8268H24.3531V18.9558H23.6279Z" fill="white"/>
<path d="M23.293 18.6167V18.4478H23.4435V18.6167H23.293ZM23.293 19.9328V18.8267H23.4435V19.9328H23.293Z" fill="white"/>
<path d="M23.0547 19.9329C22.9926 19.9459 22.9311 19.951 22.8704 19.9483C22.8103 19.9456 22.7563 19.9326 22.7085 19.9094C22.6614 19.8862 22.6256 19.85 22.601 19.8008C22.5812 19.7598 22.5703 19.7185 22.5682 19.6769C22.5669 19.6345 22.5662 19.5864 22.5662 19.5325V18.5195H22.7157V19.5263C22.7157 19.5727 22.7161 19.6117 22.7167 19.6431C22.7181 19.6738 22.7253 19.7011 22.7382 19.725C22.7628 19.7708 22.8017 19.7981 22.855 19.8069C22.9089 19.8158 22.9755 19.8138 23.0547 19.8008V19.9329ZM22.3296 18.9558V18.8268H23.0547V18.9558H22.3296Z" fill="white"/>
<path d="M21.7891 19.9625C21.6594 19.9625 21.5526 19.9345 21.4686 19.8785C21.3853 19.8225 21.3341 19.7446 21.3149 19.645L21.4686 19.6194C21.485 19.6822 21.5222 19.7324 21.5802 19.7699C21.6389 19.8068 21.7113 19.8252 21.7973 19.8252C21.8813 19.8252 21.9476 19.8078 21.996 19.773C22.0445 19.7375 22.0687 19.6893 22.0687 19.6286C22.0687 19.5944 22.0609 19.5668 22.0452 19.5456C22.0302 19.5238 21.9991 19.5036 21.952 19.4852C21.9049 19.4667 21.8346 19.4449 21.741 19.4196C21.6406 19.3923 21.5621 19.365 21.5054 19.3377C21.4488 19.3104 21.4085 19.279 21.3846 19.2435C21.3607 19.2073 21.3487 19.1632 21.3487 19.1114C21.3487 19.0485 21.3665 18.9936 21.402 18.9465C21.4375 18.8987 21.4867 18.8618 21.5495 18.8358C21.6123 18.8092 21.6854 18.7959 21.7687 18.7959C21.852 18.7959 21.9264 18.8096 21.9919 18.8369C22.0582 18.8635 22.1114 18.901 22.1517 18.9495C22.192 18.998 22.2159 19.0543 22.2234 19.1185L22.0698 19.1462C22.0595 19.0813 22.0271 19.0301 21.9725 18.9925C21.9185 18.9543 21.8499 18.9345 21.7666 18.9331C21.6881 18.9311 21.6242 18.9461 21.5751 18.9782C21.5259 19.0096 21.5013 19.0516 21.5013 19.1042C21.5013 19.1335 21.5102 19.1588 21.528 19.18C21.5457 19.2005 21.5778 19.2199 21.6242 19.2384C21.6714 19.2568 21.7383 19.2769 21.825 19.2988C21.9267 19.3247 22.0066 19.352 22.0647 19.3807C22.1227 19.4094 22.164 19.4432 22.1886 19.4821C22.2132 19.521 22.2255 19.5692 22.2255 19.6265C22.2255 19.731 22.1865 19.8133 22.1087 19.8734C22.0315 19.9328 21.925 19.9625 21.7891 19.9625Z" fill="white"/>
<path d="M20.9591 19.9326V19.3683C20.9591 19.3068 20.9533 19.2505 20.9417 19.1993C20.9301 19.1474 20.9113 19.1023 20.8853 19.0641C20.8601 19.0252 20.827 18.9951 20.786 18.974C20.7457 18.9528 20.6965 18.9422 20.6385 18.9422C20.5852 18.9422 20.5381 18.9514 20.4972 18.9699C20.4569 18.9883 20.4227 19.0149 20.3947 19.0498C20.3674 19.0839 20.3466 19.1255 20.3323 19.1747C20.3179 19.2239 20.3108 19.2799 20.3108 19.3427L20.2042 19.3191C20.2042 19.2058 20.224 19.1105 20.2636 19.0334C20.3032 18.9562 20.3579 18.8978 20.4275 18.8582C20.4972 18.8186 20.5771 18.7988 20.6672 18.7988C20.7334 18.7988 20.7911 18.8091 20.8403 18.8296C20.8901 18.85 20.9321 18.8777 20.9662 18.9125C21.0011 18.9473 21.0291 18.9873 21.0502 19.0323C21.0714 19.0767 21.0868 19.1242 21.0963 19.1747C21.1059 19.2246 21.1107 19.2744 21.1107 19.3242V19.9326H20.9591ZM20.1592 19.9326V18.8265H20.2954V19.0989H20.3108V19.9326H20.1592Z" fill="white"/>
<path d="M19.7021 19.9329V18.458H19.8527V19.9329H19.7021Z" fill="white"/>
<path d="M18.8145 19.9328V18.4272H18.965V19.9328H18.8145Z" fill="white"/>
<path d="M17.9722 19.9635C17.8889 19.9635 17.8189 19.9485 17.7622 19.9184C17.7062 19.8884 17.6642 19.8484 17.6362 19.7986C17.6082 19.7487 17.5942 19.6945 17.5942 19.6357C17.5942 19.5757 17.6062 19.5244 17.6301 19.4821C17.6547 19.4391 17.6878 19.4039 17.7294 19.3766C17.7718 19.3493 17.8206 19.3285 17.8759 19.3141C17.9319 19.3005 17.9937 19.2885 18.0613 19.2783C18.1296 19.2674 18.1961 19.2582 18.261 19.2506C18.3265 19.2424 18.3839 19.2346 18.4331 19.2271L18.3798 19.2599C18.3818 19.1506 18.3607 19.0697 18.3163 19.0171C18.2719 18.9645 18.1948 18.9383 18.0848 18.9383C18.009 18.9383 17.9449 18.9553 17.8923 18.9895C17.8404 19.0236 17.8039 19.0776 17.7827 19.1513L17.6362 19.1083C17.6615 19.0093 17.7124 18.9325 17.7888 18.8778C17.8653 18.8232 17.9647 18.7959 18.0869 18.7959C18.1879 18.7959 18.2736 18.815 18.3439 18.8533C18.415 18.8908 18.4651 18.9454 18.4945 19.0171C18.5082 19.0492 18.517 19.0851 18.5211 19.1247C18.5252 19.1643 18.5273 19.2046 18.5273 19.2455V19.9328H18.3931V19.6552L18.432 19.6716C18.3945 19.7665 18.3361 19.8389 18.2569 19.8887C18.1777 19.9386 18.0828 19.9635 17.9722 19.9635ZM17.9896 19.8334C18.0599 19.8334 18.1214 19.8208 18.1739 19.7955C18.2265 19.7703 18.2688 19.7358 18.3009 19.6921C18.333 19.6477 18.3538 19.5978 18.3634 19.5425C18.3716 19.507 18.376 19.4681 18.3767 19.4258C18.3774 19.3828 18.3777 19.3507 18.3777 19.3295L18.4351 19.3592C18.3839 19.366 18.3282 19.3729 18.2682 19.3797C18.2088 19.3865 18.15 19.3944 18.092 19.4032C18.0346 19.4121 17.9827 19.4227 17.9363 19.435C17.9049 19.4439 17.8745 19.4565 17.8452 19.4729C17.8158 19.4886 17.7916 19.5098 17.7724 19.5364C17.754 19.563 17.7448 19.5961 17.7448 19.6357C17.7448 19.6678 17.7526 19.6989 17.7684 19.7289C17.7847 19.759 17.8107 19.7839 17.8462 19.8037C17.8824 19.8235 17.9302 19.8334 17.9896 19.8334Z" fill="white"/>
<path d="M17.1978 18.6167V18.4478H17.3483V18.6167H17.1978ZM17.1978 19.9328V18.8267H17.3483V19.9328H17.1978Z" fill="white"/>
<path d="M16.532 19.9635C16.4207 19.9635 16.3265 19.9386 16.2493 19.8887C16.1722 19.8389 16.1135 19.7703 16.0732 19.6829C16.0336 19.5948 16.0131 19.4937 16.0117 19.3797C16.0131 19.2636 16.0343 19.1619 16.0752 19.0745C16.1162 18.9864 16.1752 18.9181 16.2524 18.8696C16.3296 18.8205 16.4231 18.7959 16.533 18.7959C16.645 18.7959 16.7423 18.8232 16.8249 18.8778C16.9082 18.9325 16.9652 19.0072 16.996 19.1021L16.8485 19.1492C16.8225 19.083 16.7812 19.0318 16.7246 18.9956C16.6686 18.9587 16.6044 18.9403 16.532 18.9403C16.4508 18.9403 16.3835 18.9591 16.3302 18.9966C16.277 19.0335 16.2374 19.0851 16.2114 19.1513C16.1855 19.2175 16.1722 19.2937 16.1715 19.3797C16.1729 19.5122 16.2036 19.6187 16.2637 19.6992C16.3238 19.7791 16.4132 19.8191 16.532 19.8191C16.6071 19.8191 16.671 19.802 16.7235 19.7679C16.7768 19.733 16.8171 19.6825 16.8444 19.6163L16.996 19.6613C16.955 19.7597 16.8949 19.8348 16.8157 19.8867C16.7365 19.9379 16.6419 19.9635 16.532 19.9635Z" fill="white"/>
<path d="M15.6617 19.9326V19.3683C15.6617 19.3068 15.6559 19.2505 15.6443 19.1993C15.6327 19.1474 15.6139 19.1023 15.588 19.0641C15.5627 19.0252 15.5296 18.9951 15.4886 18.974C15.4483 18.9528 15.3992 18.9422 15.3411 18.9422C15.2879 18.9422 15.2408 18.9514 15.1998 18.9699C15.1595 18.9883 15.1254 19.0149 15.0974 19.0498C15.0701 19.0839 15.0492 19.1255 15.0349 19.1747C15.0206 19.2239 15.0134 19.2799 15.0134 19.3427L14.9069 19.3191C14.9069 19.2058 14.9267 19.1105 14.9663 19.0334C15.0059 18.9562 15.0605 18.8978 15.1302 18.8582C15.1998 18.8186 15.2797 18.7988 15.3698 18.7988C15.436 18.7988 15.4937 18.8091 15.5429 18.8296C15.5928 18.85 15.6347 18.8777 15.6689 18.9125C15.7037 18.9473 15.7317 18.9873 15.7529 19.0323C15.774 19.0767 15.7894 19.1242 15.799 19.1747C15.8085 19.2246 15.8133 19.2744 15.8133 19.3242V19.9326H15.6617ZM14.8618 19.9326V18.8265H14.998V19.0989H15.0134V19.9326H14.8618Z" fill="white"/>
<path d="M14.041 19.9635C13.9577 19.9635 13.8877 19.9485 13.8311 19.9184C13.7751 19.8884 13.7331 19.8484 13.7051 19.7986C13.6771 19.7487 13.6631 19.6945 13.6631 19.6357C13.6631 19.5757 13.675 19.5244 13.6989 19.4821C13.7235 19.4391 13.7566 19.4039 13.7983 19.3766C13.8406 19.3493 13.8894 19.3285 13.9447 19.3141C14.0007 19.3005 14.0625 19.2885 14.1301 19.2783C14.1984 19.2674 14.265 19.2582 14.3298 19.2506C14.3954 19.2424 14.4527 19.2346 14.5019 19.2271L14.4486 19.2599C14.4507 19.1506 14.4295 19.0697 14.3851 19.0171C14.3408 18.9645 14.2636 18.9383 14.1537 18.9383C14.0779 18.9383 14.0137 18.9553 13.9611 18.9895C13.9092 19.0236 13.8727 19.0776 13.8515 19.1513L13.7051 19.1083C13.7303 19.0093 13.7812 18.9325 13.8577 18.8778C13.9342 18.8232 14.0335 18.7959 14.1557 18.7959C14.2568 18.7959 14.3425 18.815 14.4128 18.8533C14.4838 18.8908 14.534 18.9454 14.5634 19.0171C14.577 19.0492 14.5859 19.0851 14.59 19.1247C14.5941 19.1643 14.5961 19.2046 14.5961 19.2455V19.9328H14.462V19.6552L14.5009 19.6716C14.4633 19.7665 14.4049 19.8389 14.3257 19.8887C14.2465 19.9386 14.1516 19.9635 14.041 19.9635ZM14.0584 19.8334C14.1288 19.8334 14.1902 19.8208 14.2428 19.7955C14.2954 19.7703 14.3377 19.7358 14.3698 19.6921C14.4019 19.6477 14.4227 19.5978 14.4323 19.5425C14.4405 19.507 14.4449 19.4681 14.4456 19.4258C14.4463 19.3828 14.4466 19.3507 14.4466 19.3295L14.504 19.3592C14.4527 19.366 14.3971 19.3729 14.337 19.3797C14.2776 19.3865 14.2189 19.3944 14.1608 19.4032C14.1035 19.4121 14.0516 19.4227 14.0052 19.435C13.9738 19.4439 13.9434 19.4565 13.914 19.4729C13.8847 19.4886 13.8604 19.5098 13.8413 19.5364C13.8229 19.563 13.8136 19.5961 13.8136 19.6357C13.8136 19.6678 13.8215 19.6989 13.8372 19.7289C13.8536 19.759 13.8795 19.7839 13.915 19.8037C13.9512 19.8235 13.999 19.8334 14.0584 19.8334Z" fill="white"/>
<path d="M13.3072 19.9326V19.3683C13.3072 19.3068 13.3014 19.2505 13.2898 19.1993C13.2782 19.1474 13.2594 19.1023 13.2335 19.0641C13.2082 19.0252 13.1751 18.9951 13.1341 18.974C13.0938 18.9528 13.0447 18.9422 12.9866 18.9422C12.9334 18.9422 12.8863 18.9514 12.8453 18.9699C12.805 18.9883 12.7709 19.0149 12.7429 19.0498C12.7156 19.0839 12.6948 19.1255 12.6804 19.1747C12.6661 19.2239 12.6589 19.2799 12.6589 19.3427L12.5524 19.3191C12.5524 19.2058 12.5722 19.1105 12.6118 19.0334C12.6514 18.9562 12.706 18.8978 12.7757 18.8582C12.8453 18.8186 12.9252 18.7988 13.0153 18.7988C13.0816 18.7988 13.1393 18.8091 13.1884 18.8296C13.2383 18.85 13.2803 18.8777 13.3144 18.9125C13.3492 18.9473 13.3772 18.9873 13.3984 19.0323C13.4195 19.0767 13.4349 19.1242 13.4445 19.1747C13.454 19.2246 13.4588 19.2744 13.4588 19.3242V19.9326H13.3072ZM12.5073 19.9326V18.8265H12.6435V19.0989H12.6589V19.9326H12.5073Z" fill="white"/>
<path d="M12.0508 18.6167V18.4478H12.2013V18.6167H12.0508ZM12.0508 19.9328V18.8267H12.2013V19.9328H12.0508Z" fill="white"/>
<path d="M10.998 19.9329V18.458H11.8451V18.6086H11.1486V19.1207H11.7222V19.2702H11.1486V19.9329H10.998Z" fill="white"/>
<path d="M9.7281 19.9635C9.64617 19.9635 9.57004 19.9519 9.49971 19.9287C9.43006 19.9048 9.37168 19.8676 9.32457 19.817C9.2877 19.7774 9.26039 19.7334 9.24263 19.6849C9.22488 19.6357 9.21498 19.5839 9.21293 19.5292C9.21225 19.4773 9.21976 19.4258 9.23547 19.3746C9.25117 19.3234 9.27575 19.278 9.30921 19.2384C9.32901 19.2138 9.3512 19.1933 9.37578 19.1769C9.40104 19.1605 9.42699 19.1465 9.45362 19.1349C9.40241 19.0817 9.36315 19.0325 9.33584 18.9874C9.30921 18.9417 9.29589 18.8857 9.29589 18.8195C9.29589 18.7437 9.31501 18.6744 9.35325 18.6116C9.39217 18.5487 9.44577 18.502 9.51405 18.4712C9.54887 18.4555 9.58438 18.4446 9.62056 18.4385C9.65743 18.4316 9.69396 18.4282 9.73015 18.4282C9.78546 18.4282 9.83974 18.4361 9.893 18.4518C9.94626 18.4668 9.99166 18.4907 10.0292 18.5235C10.0545 18.5433 10.0767 18.5668 10.0958 18.5941C10.1149 18.6208 10.1299 18.6488 10.1409 18.6781L9.99542 18.7211C9.98108 18.6843 9.95718 18.6532 9.92373 18.6279C9.89778 18.6075 9.86774 18.5931 9.8336 18.5849C9.80014 18.5767 9.76634 18.5726 9.7322 18.5726C9.67416 18.5726 9.62159 18.5839 9.57447 18.6064C9.53351 18.6269 9.50278 18.6553 9.4823 18.6914C9.46181 18.7276 9.45157 18.77 9.45157 18.8184C9.45157 18.8601 9.4584 18.8946 9.47205 18.9219C9.48571 18.9485 9.50551 18.9775 9.53146 19.0089C9.54648 19.0253 9.56321 19.0421 9.58164 19.0591C9.60008 19.0755 9.61886 19.0926 9.63797 19.1103L10.105 19.5436C10.1077 19.5245 10.1094 19.506 10.1101 19.4883C10.1108 19.4698 10.1112 19.4517 10.1112 19.434L10.1101 19.2179H10.2525V19.4442C10.2525 19.4982 10.2504 19.5422 10.2463 19.5763C10.2423 19.6105 10.2368 19.6388 10.23 19.6614L10.4205 19.8365L10.3211 19.942L10.1583 19.7884C10.1357 19.8177 10.1071 19.844 10.0722 19.8672C10.0381 19.8904 10.004 19.9085 9.96981 19.9215C9.93294 19.9379 9.89402 19.9488 9.85306 19.9543C9.81209 19.9604 9.77044 19.9635 9.7281 19.9635ZM9.73015 19.8181C9.76907 19.8181 9.80424 19.8157 9.83564 19.8109C9.86705 19.8061 9.8971 19.7962 9.92577 19.7812C9.96196 19.7621 9.98893 19.7443 10.0067 19.7279C10.0244 19.7109 10.0388 19.6958 10.0497 19.6829L9.57038 19.2445C9.5417 19.2534 9.51473 19.2657 9.48947 19.2814C9.46489 19.2964 9.44372 19.3145 9.42597 19.3357C9.40616 19.3602 9.39148 19.3886 9.38193 19.4207C9.37237 19.4528 9.36759 19.4866 9.36759 19.5221C9.36895 19.5596 9.3751 19.5944 9.38602 19.6265C9.39763 19.6579 9.4147 19.6859 9.43723 19.7105C9.46932 19.7481 9.51234 19.7754 9.56628 19.7925C9.62022 19.8095 9.67485 19.8181 9.73015 19.8181Z" fill="white"/>
</svg>
